solid OpenSCAD_Model
  facet normal -1 0 0
    outer loop
      vertex -1 52 16.7253
      vertex -1 57.5 0.5
      vertex -1 52 10.2747
    endloop
  endfacet
  facet normal -1 0 0
    outer loop
      vertex -1 57.5 0.5
      vertex -1 51.8997 9.83526
      vertex -1 52 10.2747
    endloop
  endfacet
  facet normal -1 0 0
    outer loop
      vertex -1 57.5 0.5
      vertex -1 51.7042 9.4292
      vertex -1 51.8997 9.83526
    endloop
  endfacet
  facet normal -1 0 0
    outer loop
      vertex -1 57.5 0.5
      vertex -1 51.4232 9.07684
      vertex -1 51.7042 9.4292
    endloop
  endfacet
  facet normal -1 0 0
    outer loop
      vertex -1 57.5 0.5
      vertex -1 51.0708 8.79584
      vertex -1 51.4232 9.07684
    endloop
  endfacet
  facet normal -1 0 0
    outer loop
      vertex -1 57.5 0.5
      vertex -1 50.6647 8.60029
      vertex -1 51.0708 8.79584
    endloop
  endfacet
  facet normal -1 0 0
    outer loop
      vertex -1 57.5 0.5
      vertex -1 50.2253 8.5
      vertex -1 50.6647 8.60029
    endloop
  endfacet
  facet normal -1 0 0
    outer loop
      vertex -1 57.5 0.5
      vertex -1 49.7747 8.5
      vertex -1 50.2253 8.5
    endloop
  endfacet
  facet normal -1 0 0
    outer loop
      vertex -1 57.5 0.5
      vertex -1 49.3353 8.60029
      vertex -1 49.7747 8.5
    endloop
  endfacet
  facet normal -1 0 0
    outer loop
      vertex -1 57.5 0.5
      vertex -1 48.9292 8.79584
      vertex -1 49.3353 8.60029
    endloop
  endfacet
  facet normal -1 0 0
    outer loop
      vertex -1 57.5 0.5
      vertex -1 48.5768 9.07684
      vertex -1 48.9292 8.79584
    endloop
  endfacet
  facet normal -1 0 0
    outer loop
      vertex -1 48 10.2747
      vertex -1 -48 10.2747
      vertex -1 48 16.7253
    endloop
  endfacet
  facet normal -1 0 0
    outer loop
      vertex -1 48.1003 9.83526
      vertex -1 -48 10.2747
      vertex -1 48 10.2747
    endloop
  endfacet
  facet normal -1 0 0
    outer loop
      vertex -1 -48.1003 9.83526
      vertex -1 48.1003 9.83526
      vertex -1 48.2958 9.4292
    endloop
  endfacet
  facet normal -1 0 0
    outer loop
      vertex -1 -48.2958 9.4292
      vertex -1 48.2958 9.4292
      vertex -1 48.5768 9.07684
    endloop
  endfacet
  facet normal -1 0 0
    outer loop
      vertex -1 -48.5768 9.07684
      vertex -1 48.5768 9.07684
      vertex -1 57.5 0.5
    endloop
  endfacet
  facet normal -1 0 0
    outer loop
      vertex -1 48.1003 9.83526
      vertex -1 -48.1003 9.83526
      vertex -1 -48 10.2747
    endloop
  endfacet
  facet normal -1 0 0
    outer loop
      vertex -1 48.2958 9.4292
      vertex -1 -48.2958 9.4292
      vertex -1 -48.1003 9.83526
    endloop
  endfacet
  facet normal -1 0 0
    outer loop
      vertex -1 48.5768 9.07684
      vertex -1 -48.5768 9.07684
      vertex -1 -48.2958 9.4292
    endloop
  endfacet
  facet normal -1 0 0
    outer loop
      vertex -1 -57.5 0.5
      vertex -1 -48.5768 9.07684
      vertex -1 57.5 0.5
    endloop
  endfacet
  facet normal -1 0 0
    outer loop
      vertex -1 -48.5768 9.07684
      vertex -1 -57.5 0.5
      vertex -1 -48.9292 8.79584
    endloop
  endfacet
  facet normal -1 0 0
    outer loop
      vertex -1 -48.9292 8.79584
      vertex -1 -57.5 0.5
      vertex -1 -49.3353 8.60029
    endloop
  endfacet
  facet normal -1 0 0
    outer loop
      vertex -1 -49.3353 8.60029
      vertex -1 -57.5 0.5
      vertex -1 -49.7747 8.5
    endloop
  endfacet
  facet normal -1 -0 0
    outer loop
      vertex -1 -52 10.2747
      vertex -1 -57.5 0.5
      vertex -1 -52 16.7253
    endloop
  endfacet
  facet normal -1 -0 0
    outer loop
      vertex -1 -51.8997 9.83526
      vertex -1 -57.5 0.5
      vertex -1 -52 10.2747
    endloop
  endfacet
  facet normal -1 -0 0
    outer loop
      vertex -1 -51.7042 9.4292
      vertex -1 -57.5 0.5
      vertex -1 -51.8997 9.83526
    endloop
  endfacet
  facet normal -1 -0 0
    outer loop
      vertex -1 -51.4232 9.07684
      vertex -1 -57.5 0.5
      vertex -1 -51.7042 9.4292
    endloop
  endfacet
  facet normal -1 -0 0
    outer loop
      vertex -1 -51.0708 8.79584
      vertex -1 -57.5 0.5
      vertex -1 -51.4232 9.07684
    endloop
  endfacet
  facet normal -1 -0 0
    outer loop
      vertex -1 -50.6647 8.60029
      vertex -1 -57.5 0.5
      vertex -1 -51.0708 8.79584
    endloop
  endfacet
  facet normal -1 -0 0
    outer loop
      vertex -1 -50.2253 8.5
      vertex -1 -57.5 0.5
      vertex -1 -50.6647 8.60029
    endloop
  endfacet
  facet normal -1 -0 0
    outer loop
      vertex -1 -49.7747 8.5
      vertex -1 -57.5 0.5
      vertex -1 -50.2253 8.5
    endloop
  endfacet
  facet normal -1 0 0
    outer loop
      vertex -1 57.5 0.5
      vertex -1 52 16.7253
      vertex -1 57.5 40
    endloop
  endfacet
  facet normal -1 0 0
    outer loop
      vertex -1 51.8997 17.1647
      vertex -1 57.5 40
      vertex -1 52 16.7253
    endloop
  endfacet
  facet normal -1 0 0
    outer loop
      vertex -1 51.7042 17.5708
      vertex -1 57.5 40
      vertex -1 51.8997 17.1647
    endloop
  endfacet
  facet normal -1 0 0
    outer loop
      vertex -1 51.4232 17.9232
      vertex -1 57.5 40
      vertex -1 51.7042 17.5708
    endloop
  endfacet
  facet normal -1 0 0
    outer loop
      vertex -1 51.0708 18.2042
      vertex -1 57.5 40
      vertex -1 51.4232 17.9232
    endloop
  endfacet
  facet normal -1 0 0
    outer loop
      vertex -1 50.6647 18.3997
      vertex -1 57.5 40
      vertex -1 51.0708 18.2042
    endloop
  endfacet
  facet normal -1 0 0
    outer loop
      vertex -1 50.2253 18.5
      vertex -1 57.5 40
      vertex -1 50.6647 18.3997
    endloop
  endfacet
  facet normal -1 0 0
    outer loop
      vertex -1 49.7747 18.5
      vertex -1 57.5 40
      vertex -1 50.2253 18.5
    endloop
  endfacet
  facet normal -1 0 0
    outer loop
      vertex -1 49.3353 18.3997
      vertex -1 57.5 40
      vertex -1 49.7747 18.5
    endloop
  endfacet
  facet normal -1 0 0
    outer loop
      vertex -1 48.9292 18.2042
      vertex -1 57.5 40
      vertex -1 49.3353 18.3997
    endloop
  endfacet
  facet normal -1 0 0
    outer loop
      vertex -1 48.5768 17.9232
      vertex -1 57.5 40
      vertex -1 48.9292 18.2042
    endloop
  endfacet
  facet normal -1 0 0
    outer loop
      vertex -1 48.2958 17.5708
      vertex -1 57.5 40
      vertex -1 48.5768 17.9232
    endloop
  endfacet
  facet normal -1 0 0
    outer loop
      vertex -1 -48.2958 17.5708
      vertex -1 48.2958 17.5708
      vertex -1 48.1003 17.1647
    endloop
  endfacet
  facet normal -1 0 0
    outer loop
      vertex -1 -48 16.7253
      vertex -1 48 16.7253
      vertex -1 -48 10.2747
    endloop
  endfacet
  facet normal -1 0 0
    outer loop
      vertex -1 48 16.7253
      vertex -1 -48 16.7253
      vertex -1 48.1003 17.1647
    endloop
  endfacet
  facet normal -1 0 0
    outer loop
      vertex -1 -48.1003 17.1647
      vertex -1 48.1003 17.1647
      vertex -1 -48 16.7253
    endloop
  endfacet
  facet normal -1 0 0
    outer loop
      vertex -1 -48.2958 17.5708
      vertex -1 48.1003 17.1647
      vertex -1 -48.1003 17.1647
    endloop
  endfacet
  facet normal -1 0 0
    outer loop
      vertex -1 48.2958 17.5708
      vertex -1 -48.2958 17.5708
      vertex -1 57.5 40
    endloop
  endfacet
  facet normal -1 0 0
    outer loop
      vertex -1 -57.5 40
      vertex -1 -48.2958 17.5708
      vertex -1 -48.5768 17.9232
    endloop
  endfacet
  facet normal -1 0 0
    outer loop
      vertex -1 -57.5 40
      vertex -1 -48.5768 17.9232
      vertex -1 -48.9292 18.2042
    endloop
  endfacet
  facet normal -1 0 0
    outer loop
      vertex -1 -57.5 40
      vertex -1 -48.9292 18.2042
      vertex -1 -49.3353 18.3997
    endloop
  endfacet
  facet normal -1 0 0
    outer loop
      vertex -1 -57.5 40
      vertex -1 -49.3353 18.3997
      vertex -1 -49.7747 18.5
    endloop
  endfacet
  facet normal -1 0 0
    outer loop
      vertex -1 -57.5 40
      vertex -1 -49.7747 18.5
      vertex -1 -50.2253 18.5
    endloop
  endfacet
  facet normal -1 0 0
    outer loop
      vertex -1 -57.5 40
      vertex -1 -52 16.7253
      vertex -1 -57.5 0.5
    endloop
  endfacet
  facet normal -1 0 0
    outer loop
      vertex -1 -48.2958 17.5708
      vertex -1 -57.5 40
      vertex -1 57.5 40
    endloop
  endfacet
  facet normal -1 0 0
    outer loop
      vertex -1 -50.6647 18.3997
      vertex -1 -57.5 40
      vertex -1 -50.2253 18.5
    endloop
  endfacet
  facet normal -1 0 0
    outer loop
      vertex -1 -51.0708 18.2042
      vertex -1 -57.5 40
      vertex -1 -50.6647 18.3997
    endloop
  endfacet
  facet normal -1 0 0
    outer loop
      vertex -1 -51.4232 17.9232
      vertex -1 -57.5 40
      vertex -1 -51.0708 18.2042
    endloop
  endfacet
  facet normal -1 0 0
    outer loop
      vertex -1 -51.7042 17.5708
      vertex -1 -57.5 40
      vertex -1 -51.4232 17.9232
    endloop
  endfacet
  facet normal -1 0 0
    outer loop
      vertex -1 -51.8997 17.1647
      vertex -1 -57.5 40
      vertex -1 -51.7042 17.5708
    endloop
  endfacet
  facet normal -1 0 0
    outer loop
      vertex -1 -52 16.7253
      vertex -1 -57.5 40
      vertex -1 -51.8997 17.1647
    endloop
  endfacet
  facet normal -0 0 1
    outer loop
      vertex -1 57.5 40
      vertex 0.499999 -57.5 40
      vertex 0.499999 57.5 40
    endloop
  endfacet
  facet normal 0 0 1
    outer loop
      vertex 0.499999 -57.5 40
      vertex -1 57.5 40
      vertex -1 -57.5 40
    endloop
  endfacet
  facet normal 1 -0 0
    outer loop
      vertex 1 52 16.7253
      vertex 1 57 0.500001
      vertex 1 57 39.5
    endloop
  endfacet
  facet normal 1 -0 0
    outer loop
      vertex 1 52 10.2747
      vertex 1 57 0.500001
      vertex 1 52 16.7253
    endloop
  endfacet
  facet normal 1 0 0
    outer loop
      vertex 1 57 39.5
      vertex 1 51.8997 17.1647
      vertex 1 52 16.7253
    endloop
  endfacet
  facet normal 1 0 0
    outer loop
      vertex 1 57 39.5
      vertex 1 51.7042 17.5708
      vertex 1 51.8997 17.1647
    endloop
  endfacet
  facet normal 1 0 0
    outer loop
      vertex 1 57 39.5
      vertex 1 51.4232 17.9232
      vertex 1 51.7042 17.5708
    endloop
  endfacet
  facet normal 1 0 0
    outer loop
      vertex 1 57 39.5
      vertex 1 51.0708 18.2042
      vertex 1 51.4232 17.9232
    endloop
  endfacet
  facet normal 1 0 0
    outer loop
      vertex 1 57 39.5
      vertex 1 50.6647 18.3997
      vertex 1 51.0708 18.2042
    endloop
  endfacet
  facet normal 1 0 0
    outer loop
      vertex 1 57 39.5
      vertex 1 50.2253 18.5
      vertex 1 50.6647 18.3997
    endloop
  endfacet
  facet normal 1 0 0
    outer loop
      vertex 1 57 39.5
      vertex 1 49.7747 18.5
      vertex 1 50.2253 18.5
    endloop
  endfacet
  facet normal 1 0 0
    outer loop
      vertex 1 57 39.5
      vertex 1 49.3353 18.3997
      vertex 1 49.7747 18.5
    endloop
  endfacet
  facet normal 1 0 0
    outer loop
      vertex 1 57 39.5
      vertex 1 48.9292 18.2042
      vertex 1 49.3353 18.3997
    endloop
  endfacet
  facet normal 1 0 0
    outer loop
      vertex 1 57 39.5
      vertex 1 48.5768 17.9232
      vertex 1 48.9292 18.2042
    endloop
  endfacet
  facet normal 1 0 0
    outer loop
      vertex 1 57 39.5
      vertex 1 48.2958 17.5708
      vertex 1 48.5768 17.9232
    endloop
  endfacet
  facet normal 1 0 0
    outer loop
      vertex 1 -48.2958 17.5708
      vertex 1 48.2958 17.5708
      vertex 1 57 39.5
    endloop
  endfacet
  facet normal 1 0 0
    outer loop
      vertex 1 48 16.7253
      vertex 1 -48 16.7253
      vertex 1 48 10.2747
    endloop
  endfacet
  facet normal 1 0 0
    outer loop
      vertex 1 48.1003 17.1647
      vertex 1 -48 16.7253
      vertex 1 48 16.7253
    endloop
  endfacet
  facet normal 1 0 0
    outer loop
      vertex 1 48.2958 17.5708
      vertex 1 -48.2958 17.5708
      vertex 1 48.1003 17.1647
    endloop
  endfacet
  facet normal 1 0 0
    outer loop
      vertex 1 48.1003 17.1647
      vertex 1 -48.1003 17.1647
      vertex 1 -48 16.7253
    endloop
  endfacet
  facet normal 1 0 0
    outer loop
      vertex 1 48.1003 17.1647
      vertex 1 -48.2958 17.5708
      vertex 1 -48.1003 17.1647
    endloop
  endfacet
  facet normal 1 -0 0
    outer loop
      vertex 1 -57 39.5
      vertex 1 -48.2958 17.5708
      vertex 1 57 39.5
    endloop
  endfacet
  facet normal 1 0 0
    outer loop
      vertex 1 -48.2958 17.5708
      vertex 1 -57 39.5
      vertex 1 -48.5768 17.9232
    endloop
  endfacet
  facet normal 1 0 0
    outer loop
      vertex 1 -48.5768 17.9232
      vertex 1 -57 39.5
      vertex 1 -48.9292 18.2042
    endloop
  endfacet
  facet normal 1 0 0
    outer loop
      vertex 1 -48.9292 18.2042
      vertex 1 -57 39.5
      vertex 1 -49.3353 18.3997
    endloop
  endfacet
  facet normal 1 0 0
    outer loop
      vertex 1 -49.3353 18.3997
      vertex 1 -57 39.5
      vertex 1 -49.7747 18.5
    endloop
  endfacet
  facet normal 1 0 0
    outer loop
      vertex 1 -57 0.500001
      vertex 1 -52 16.7253
      vertex 1 -57 39.5
    endloop
  endfacet
  facet normal 1 0 0
    outer loop
      vertex 1 -51.8997 17.1647
      vertex 1 -57 39.5
      vertex 1 -52 16.7253
    endloop
  endfacet
  facet normal 1 0 0
    outer loop
      vertex 1 -51.7042 17.5708
      vertex 1 -57 39.5
      vertex 1 -51.8997 17.1647
    endloop
  endfacet
  facet normal 1 0 0
    outer loop
      vertex 1 -51.4232 17.9232
      vertex 1 -57 39.5
      vertex 1 -51.7042 17.5708
    endloop
  endfacet
  facet normal 1 0 0
    outer loop
      vertex 1 -51.0708 18.2042
      vertex 1 -57 39.5
      vertex 1 -51.4232 17.9232
    endloop
  endfacet
  facet normal 1 0 0
    outer loop
      vertex 1 -50.6647 18.3997
      vertex 1 -57 39.5
      vertex 1 -51.0708 18.2042
    endloop
  endfacet
  facet normal 1 0 0
    outer loop
      vertex 1 -50.2253 18.5
      vertex 1 -57 39.5
      vertex 1 -50.6647 18.3997
    endloop
  endfacet
  facet normal 1 0 0
    outer loop
      vertex 1 -49.7747 18.5
      vertex 1 -57 39.5
      vertex 1 -50.2253 18.5
    endloop
  endfacet
  facet normal 1 -0 0
    outer loop
      vertex 1 51.8997 9.83526
      vertex 1 57 0.500001
      vertex 1 52 10.2747
    endloop
  endfacet
  facet normal 1 -0 0
    outer loop
      vertex 1 51.7042 9.4292
      vertex 1 57 0.500001
      vertex 1 51.8997 9.83526
    endloop
  endfacet
  facet normal 1 -0 0
    outer loop
      vertex 1 51.4232 9.07684
      vertex 1 57 0.500001
      vertex 1 51.7042 9.4292
    endloop
  endfacet
  facet normal 1 -0 0
    outer loop
      vertex 1 51.0708 8.79584
      vertex 1 57 0.500001
      vertex 1 51.4232 9.07684
    endloop
  endfacet
  facet normal 1 -0 0
    outer loop
      vertex 1 50.6647 8.60029
      vertex 1 57 0.500001
      vertex 1 51.0708 8.79584
    endloop
  endfacet
  facet normal 1 -0 0
    outer loop
      vertex 1 50.2253 8.5
      vertex 1 57 0.500001
      vertex 1 50.6647 8.60029
    endloop
  endfacet
  facet normal 1 -0 0
    outer loop
      vertex 1 49.7747 8.5
      vertex 1 57 0.500001
      vertex 1 50.2253 8.5
    endloop
  endfacet
  facet normal 1 0 0
    outer loop
      vertex 1 57 0.500001
      vertex 1 49.7747 8.5
      vertex 1 57 0.5
    endloop
  endfacet
  facet normal 1 0 0
    outer loop
      vertex 1 49.3353 8.60029
      vertex 1 57 0.5
      vertex 1 49.7747 8.5
    endloop
  endfacet
  facet normal 1 0 0
    outer loop
      vertex 1 48.9292 8.79584
      vertex 1 57 0.5
      vertex 1 49.3353 8.60029
    endloop
  endfacet
  facet normal 1 0 0
    outer loop
      vertex 1 48.5768 9.07684
      vertex 1 57 0.5
      vertex 1 48.9292 8.79584
    endloop
  endfacet
  facet normal 1 0 0
    outer loop
      vertex 1 -48 10.2747
      vertex 1 48 10.2747
      vertex 1 -48 16.7253
    endloop
  endfacet
  facet normal 1 0 0
    outer loop
      vertex 1 48 10.2747
      vertex 1 -48 10.2747
      vertex 1 48.1003 9.83526
    endloop
  endfacet
  facet normal 1 0 0
    outer loop
      vertex 1 -48.1003 9.83526
      vertex 1 48.1003 9.83526
      vertex 1 -48 10.2747
    endloop
  endfacet
  facet normal 1 0 0
    outer loop
      vertex 1 48.1003 9.83526
      vertex 1 -48.1003 9.83526
      vertex 1 48.2958 9.4292
    endloop
  endfacet
  facet normal 1 0 0
    outer loop
      vertex 1 -48.2958 9.4292
      vertex 1 48.2958 9.4292
      vertex 1 -48.1003 9.83526
    endloop
  endfacet
  facet normal 1 0 0
    outer loop
      vertex 1 48.2958 9.4292
      vertex 1 -48.2958 9.4292
      vertex 1 48.5768 9.07684
    endloop
  endfacet
  facet normal 1 0 0
    outer loop
      vertex 1 -48.5768 9.07684
      vertex 1 48.5768 9.07684
      vertex 1 -48.2958 9.4292
    endloop
  endfacet
  facet normal 1 0 0
    outer loop
      vertex 1 48.5768 9.07684
      vertex 1 -48.5768 9.07684
      vertex 1 57 0.5
    endloop
  endfacet
  facet normal 1 0 0
    outer loop
      vertex 1 -57 0.5
      vertex 1 -48.5768 9.07684
      vertex 1 -48.9292 8.79584
    endloop
  endfacet
  facet normal 1 0 0
    outer loop
      vertex 1 -57 0.5
      vertex 1 -48.9292 8.79584
      vertex 1 -49.3353 8.60029
    endloop
  endfacet
  facet normal 1 0 0
    outer loop
      vertex 1 -57 0.5
      vertex 1 -49.3353 8.60029
      vertex 1 -49.7747 8.5
    endloop
  endfacet
  facet normal 1 0 0
    outer loop
      vertex 1 -57 0.500001
      vertex 1 -49.7747 8.5
      vertex 1 -50.2253 8.5
    endloop
  endfacet
  facet normal 1 0 0
    outer loop
      vertex 1 -52 16.7253
      vertex 1 -57 0.500001
      vertex 1 -52 10.2747
    endloop
  endfacet
  facet normal 1 0 0
    outer loop
      vertex 1 -57 0.500001
      vertex 1 -51.8997 9.83526
      vertex 1 -52 10.2747
    endloop
  endfacet
  facet normal 1 0 0
    outer loop
      vertex 1 -57 0.500001
      vertex 1 -51.7042 9.4292
      vertex 1 -51.8997 9.83526
    endloop
  endfacet
  facet normal 1 0 0
    outer loop
      vertex 1 -57 0.500001
      vertex 1 -51.4232 9.07684
      vertex 1 -51.7042 9.4292
    endloop
  endfacet
  facet normal 1 0 0
    outer loop
      vertex 1 -57 0.500001
      vertex 1 -51.0708 8.79584
      vertex 1 -51.4232 9.07684
    endloop
  endfacet
  facet normal 1 0 0
    outer loop
      vertex 1 -57 0.500001
      vertex 1 -50.6647 8.60029
      vertex 1 -51.0708 8.79584
    endloop
  endfacet
  facet normal 1 0 0
    outer loop
      vertex 1 -57 0.500001
      vertex 1 -50.2253 8.5
      vertex 1 -50.6647 8.60029
    endloop
  endfacet
  facet normal 1 0 0
    outer loop
      vertex 1 -49.7747 8.5
      vertex 1 -57 0.500001
      vertex 1 -57 0.5
    endloop
  endfacet
  facet normal 1 0 0
    outer loop
      vertex 1 -48.5768 9.07684
      vertex 1 -57 0.5
      vertex 1 57 0.5
    endloop
  endfacet
  facet normal 0 0 -1
    outer loop
      vertex 0.499998 -57 0
      vertex 0.499999 57 0
      vertex 0.499999 -57 0
    endloop
  endfacet
  facet normal 0 0 -1
    outer loop
      vertex 0.499998 -57 0
      vertex 0.499998 57 0
      vertex 0.499999 57 0
    endloop
  endfacet
  facet normal 0 0 -1
    outer loop
      vertex -0.499999 -57 0
      vertex 0.499998 57 0
      vertex 0.499998 -57 0
    endloop
  endfacet
  facet normal -0 0 -1
    outer loop
      vertex 0.499998 57 0
      vertex -0.499999 -57 0
      vertex -0.499999 57 0
    endloop
  endfacet
  facet normal 0 -1 0
    outer loop
      vertex -1 -57.5 40
      vertex 0.499999 -57.5 0.5
      vertex 0.499999 -57.5 40
    endloop
  endfacet
  facet normal 0 -1 0
    outer loop
      vertex -1 -57.5 0.5
      vertex 0.499999 -57.5 0.5
      vertex -1 -57.5 40
    endloop
  endfacet
  facet normal 0 1 -0
    outer loop
      vertex 0.499999 57.5 0.5
      vertex -1 57.5 40
      vertex 0.499999 57.5 40
    endloop
  endfacet
  facet normal 0 1 0
    outer loop
      vertex 0.499999 57.5 0.5
      vertex -1 57.5 0.5
      vertex -1 57.5 40
    endloop
  endfacet
  facet normal 0.707106 0 0.707107
    outer loop
      vertex 0.499999 57.5 40
      vertex 1 -57 39.5
      vertex 1 57 39.5
    endloop
  endfacet
  facet normal 0.707106 0 0.707107
    outer loop
      vertex 1 -57 39.5
      vertex 0.499999 57.5 40
      vertex 0.499999 -57.5 40
    endloop
  endfacet
  facet normal 0.707106 0.707107 0
    outer loop
      vertex 0.499999 57.5 0.5
      vertex 1 57 39.5
      vertex 1 57 0.500001
    endloop
  endfacet
  facet normal 0.707106 0.707107 0
    outer loop
      vertex 1 57 39.5
      vertex 0.499999 57.5 0.5
      vertex 0.499999 57.5 40
    endloop
  endfacet
  facet normal 0 -0.707107 -0.707107
    outer loop
      vertex -0.499999 -57 0
      vertex 0.499999 -57.5 0.5
      vertex -1 -57.5 0.5
    endloop
  endfacet
  facet normal 7.2118e-05 -0.707035 -0.707179
    outer loop
      vertex 0.499999 -57.5 0.5
      vertex -0.499999 -57 0
      vertex 0.499999 -57.3333 0.333334
    endloop
  endfacet
  facet normal 0 -0.707143 -0.707071
    outer loop
      vertex 0.499999 -57.3333 0.333334
      vertex -0.499999 -57 0
      vertex 0.499998 -57 0
    endloop
  endfacet
  facet normal -0.707106 0 -0.707107
    outer loop
      vertex -1 -57.5 0.5
      vertex -0.499999 57 0
      vertex -0.499999 -57 0
    endloop
  endfacet
  facet normal -0.707106 0 -0.707107
    outer loop
      vertex -0.499999 57 0
      vertex -1 -57.5 0.5
      vertex -1 57.5 0.5
    endloop
  endfacet
  facet normal 7.2118e-05 0.707035 -0.707179
    outer loop
      vertex -0.499999 57 0
      vertex 0.499999 57.5 0.5
      vertex 0.499999 57.3333 0.333334
    endloop
  endfacet
  facet normal 0 0.707143 -0.707071
    outer loop
      vertex -0.499999 57 0
      vertex 0.499999 57.3333 0.333334
      vertex 0.499998 57 0
    endloop
  endfacet
  facet normal 0 0.707107 -0.707107
    outer loop
      vertex 0.499999 57.5 0.5
      vertex -0.499999 57 0
      vertex -1 57.5 0.5
    endloop
  endfacet
  facet normal 0.707107 0 -0.707107
    outer loop
      vertex 0.833334 -57 0.333334
      vertex 1 57 0.5
      vertex 1 -57 0.5
    endloop
  endfacet
  facet normal 0.707107 0 -0.707107
    outer loop
      vertex 0.833334 -57 0.333334
      vertex 0.833334 57 0.333334
      vertex 1 57 0.5
    endloop
  endfacet
  facet normal 0.707106 0 -0.707108
    outer loop
      vertex 0.499999 -57 0
      vertex 0.833334 57 0.333334
      vertex 0.833334 -57 0.333334
    endloop
  endfacet
  facet normal 0.707106 0 -0.707108
    outer loop
      vertex 0.833334 57 0.333334
      vertex 0.499999 -57 0
      vertex 0.499999 57 0
    endloop
  endfacet
  facet normal 0.707106 -0.707107 0
    outer loop
      vertex 0.499999 -57.5 0.5
      vertex 1 -57 39.5
      vertex 0.499999 -57.5 40
    endloop
  endfacet
  facet normal 0.707106 -0.707107 0
    outer loop
      vertex 1 -57 39.5
      vertex 0.499999 -57.5 0.5
      vertex 1 -57 0.500001
    endloop
  endfacet
  facet normal 0.577329 -0.57739 -0.577331
    outer loop
      vertex 0.499999 -57.3333 0.333334
      vertex 0.499999 -57 0
      vertex 0.833334 -57 0.333334
    endloop
  endfacet
  facet normal -0 -0.707143 -0.707071
    outer loop
      vertex 0.499999 -57 0
      vertex 0.499999 -57.3333 0.333334
      vertex 0.499998 -57 0
    endloop
  endfacet
  facet normal 0.577351 -0.577351 -0.577348
    outer loop
      vertex 0.499999 -57.5 0.5
      vertex 0.833334 -57 0.333334
      vertex 1 -57 0.500001
    endloop
  endfacet
  facet normal 0.577271 -0.577331 -0.577449
    outer loop
      vertex 0.499999 -57.5 0.5
      vertex 0.499999 -57.3333 0.333334
      vertex 0.833334 -57 0.333334
    endloop
  endfacet
  facet normal 0 -1 -0
    outer loop
      vertex 1 -57 0.500001
      vertex 0.833334 -57 0.333334
      vertex 1 -57 0.5
    endloop
  endfacet
  facet normal 0.577329 0.57739 -0.577331
    outer loop
      vertex 0.499999 57 0
      vertex 0.499999 57.3333 0.333334
      vertex 0.833334 57 0.333334
    endloop
  endfacet
  facet normal 0 0.707143 -0.707071
    outer loop
      vertex 0.499999 57.3333 0.333334
      vertex 0.499999 57 0
      vertex 0.499998 57 0
    endloop
  endfacet
  facet normal 0.577311 0.577311 -0.577429
    outer loop
      vertex 1 57 0.500001
      vertex 0.499999 57.3333 0.333334
      vertex 0.499999 57.5 0.5
    endloop
  endfacet
  facet normal 0.554661 0.832076 -0
    outer loop
      vertex 1 57 0.5
      vertex 0.499999 57.3333 0.333334
      vertex 1 57 0.500001
    endloop
  endfacet
  facet normal 0.57733 0.577391 -0.57733
    outer loop
      vertex 0.499999 57.3333 0.333334
      vertex 1 57 0.5
      vertex 0.833334 57 0.333334
    endloop
  endfacet
  facet normal 0 0 -1
    outer loop
      vertex -1 -50.2253 18.5
      vertex 1 -49.7747 18.5
      vertex 1 -50.2253 18.5
    endloop
  endfacet
  facet normal -0 0 -1
    outer loop
      vertex 1 -49.7747 18.5
      vertex -1 -50.2253 18.5
      vertex -1 -49.7747 18.5
    endloop
  endfacet
  facet normal 0 -0.62345 -0.781864
    outer loop
      vertex -1 -48.9292 18.2042
      vertex 1 -48.5768 17.9232
      vertex 1 -48.9292 18.2042
    endloop
  endfacet
  facet normal -0 -0.62345 -0.781864
    outer loop
      vertex 1 -48.5768 17.9232
      vertex -1 -48.9292 18.2042
      vertex -1 -48.5768 17.9232
    endloop
  endfacet
  facet normal 0 -0.433762 -0.901027
    outer loop
      vertex -1 -49.3353 18.3997
      vertex 1 -48.9292 18.2042
      vertex 1 -49.3353 18.3997
    endloop
  endfacet
  facet normal -0 -0.433762 -0.901027
    outer loop
      vertex 1 -48.9292 18.2042
      vertex -1 -49.3353 18.3997
      vertex -1 -48.9292 18.2042
    endloop
  endfacet
  facet normal 0 -0.901027 -0.433762
    outer loop
      vertex -1 -48.1003 17.1647
      vertex 1 -48.2958 17.5708
      vertex -1 -48.2958 17.5708
    endloop
  endfacet
  facet normal 0 -0.901027 -0.433762
    outer loop
      vertex 1 -48.2958 17.5708
      vertex -1 -48.1003 17.1647
      vertex 1 -48.1003 17.1647
    endloop
  endfacet
  facet normal 0 -0.222542 -0.974923
    outer loop
      vertex -1 -49.7747 18.5
      vertex 1 -49.3353 18.3997
      vertex 1 -49.7747 18.5
    endloop
  endfacet
  facet normal -0 -0.222542 -0.974923
    outer loop
      vertex 1 -49.3353 18.3997
      vertex -1 -49.7747 18.5
      vertex -1 -49.3353 18.3997
    endloop
  endfacet
  facet normal 0 -0.781864 -0.62345
    outer loop
      vertex -1 -48.2958 17.5708
      vertex 1 -48.5768 17.9232
      vertex -1 -48.5768 17.9232
    endloop
  endfacet
  facet normal 0 -0.781864 -0.62345
    outer loop
      vertex 1 -48.5768 17.9232
      vertex -1 -48.2958 17.5708
      vertex 1 -48.2958 17.5708
    endloop
  endfacet
  facet normal 0 -0.974923 -0.222542
    outer loop
      vertex -1 -48 16.7253
      vertex 1 -48.1003 17.1647
      vertex -1 -48.1003 17.1647
    endloop
  endfacet
  facet normal 0 -0.974923 -0.222542
    outer loop
      vertex 1 -48.1003 17.1647
      vertex -1 -48 16.7253
      vertex 1 -48 16.7253
    endloop
  endfacet
  facet normal 0 -1 0
    outer loop
      vertex -1 -48 10.2747
      vertex 1 -48 16.7253
      vertex -1 -48 16.7253
    endloop
  endfacet
  facet normal 0 -1 -0
    outer loop
      vertex 1 -48 16.7253
      vertex -1 -48 10.2747
      vertex 1 -48 10.2747
    endloop
  endfacet
  facet normal 0 1 -0
    outer loop
      vertex 1 -52 10.2747
      vertex -1 -52 16.7253
      vertex 1 -52 16.7253
    endloop
  endfacet
  facet normal 0 1 0
    outer loop
      vertex -1 -52 16.7253
      vertex 1 -52 10.2747
      vertex -1 -52 10.2747
    endloop
  endfacet
  facet normal 0 0.781864 -0.62345
    outer loop
      vertex 1 -51.7042 17.5708
      vertex -1 -51.4232 17.9232
      vertex 1 -51.4232 17.9232
    endloop
  endfacet
  facet normal 0 0.781864 -0.62345
    outer loop
      vertex -1 -51.4232 17.9232
      vertex 1 -51.7042 17.5708
      vertex -1 -51.7042 17.5708
    endloop
  endfacet
  facet normal 0 0.901027 -0.433762
    outer loop
      vertex 1 -51.8997 17.1647
      vertex -1 -51.7042 17.5708
      vertex 1 -51.7042 17.5708
    endloop
  endfacet
  facet normal 0 0.901027 -0.433762
    outer loop
      vertex -1 -51.7042 17.5708
      vertex 1 -51.8997 17.1647
      vertex -1 -51.8997 17.1647
    endloop
  endfacet
  facet normal 0 0.433762 -0.901027
    outer loop
      vertex -1 -51.0708 18.2042
      vertex 1 -50.6647 18.3997
      vertex 1 -51.0708 18.2042
    endloop
  endfacet
  facet normal 0 0.433762 -0.901027
    outer loop
      vertex 1 -50.6647 18.3997
      vertex -1 -51.0708 18.2042
      vertex -1 -50.6647 18.3997
    endloop
  endfacet
  facet normal 0 0.974923 -0.222542
    outer loop
      vertex 1 -52 16.7253
      vertex -1 -51.8997 17.1647
      vertex 1 -51.8997 17.1647
    endloop
  endfacet
  facet normal 0 0.974923 -0.222542
    outer loop
      vertex -1 -51.8997 17.1647
      vertex 1 -52 16.7253
      vertex -1 -52 16.7253
    endloop
  endfacet
  facet normal 0 0.62345 -0.781864
    outer loop
      vertex -1 -51.4232 17.9232
      vertex 1 -51.0708 18.2042
      vertex 1 -51.4232 17.9232
    endloop
  endfacet
  facet normal 0 0.62345 -0.781864
    outer loop
      vertex 1 -51.0708 18.2042
      vertex -1 -51.4232 17.9232
      vertex -1 -51.0708 18.2042
    endloop
  endfacet
  facet normal 0 0.222542 -0.974923
    outer loop
      vertex -1 -50.6647 18.3997
      vertex 1 -50.2253 18.5
      vertex 1 -50.6647 18.3997
    endloop
  endfacet
  facet normal 0 0.222542 -0.974923
    outer loop
      vertex 1 -50.2253 18.5
      vertex -1 -50.6647 18.3997
      vertex -1 -50.2253 18.5
    endloop
  endfacet
  facet normal 0 0.974928 0.222522
    outer loop
      vertex 1 -51.8997 9.83526
      vertex -1 -52 10.2747
      vertex 1 -52 10.2747
    endloop
  endfacet
  facet normal 0 0.974928 0.222522
    outer loop
      vertex -1 -52 10.2747
      vertex 1 -51.8997 9.83526
      vertex -1 -51.8997 9.83526
    endloop
  endfacet
  facet normal -0 0.433852 0.900984
    outer loop
      vertex -1 -50.6647 8.60029
      vertex 1 -51.0708 8.79584
      vertex 1 -50.6647 8.60029
    endloop
  endfacet
  facet normal 0 0.433852 0.900984
    outer loop
      vertex 1 -51.0708 8.79584
      vertex -1 -50.6647 8.60029
      vertex -1 -51.0708 8.79584
    endloop
  endfacet
  facet normal -0 0 1
    outer loop
      vertex -1 -49.7747 8.5
      vertex 1 -50.2253 8.5
      vertex 1 -49.7747 8.5
    endloop
  endfacet
  facet normal 0 0 1
    outer loop
      vertex 1 -50.2253 8.5
      vertex -1 -49.7747 8.5
      vertex -1 -50.2253 8.5
    endloop
  endfacet
  facet normal 0 0.901011 0.433797
    outer loop
      vertex 1 -51.7042 9.4292
      vertex -1 -51.8997 9.83526
      vertex 1 -51.8997 9.83526
    endloop
  endfacet
  facet normal 0 0.901011 0.433797
    outer loop
      vertex -1 -51.8997 9.83526
      vertex 1 -51.7042 9.4292
      vertex -1 -51.7042 9.4292
    endloop
  endfacet
  facet normal -0 0.222521 0.974928
    outer loop
      vertex -1 -50.2253 8.5
      vertex 1 -50.6647 8.60029
      vertex 1 -50.2253 8.5
    endloop
  endfacet
  facet normal 0 0.222521 0.974928
    outer loop
      vertex 1 -50.6647 8.60029
      vertex -1 -50.2253 8.5
      vertex -1 -50.6647 8.60029
    endloop
  endfacet
  facet normal -0 0.62345 0.781864
    outer loop
      vertex -1 -51.0708 8.79584
      vertex 1 -51.4232 9.07684
      vertex 1 -51.0708 8.79584
    endloop
  endfacet
  facet normal 0 0.62345 0.781864
    outer loop
      vertex 1 -51.4232 9.07684
      vertex -1 -51.0708 8.79584
      vertex -1 -51.4232 9.07684
    endloop
  endfacet
  facet normal 0 0.781829 0.623493
    outer loop
      vertex 1 -51.4232 9.07684
      vertex -1 -51.7042 9.4292
      vertex 1 -51.7042 9.4292
    endloop
  endfacet
  facet normal 0 0.781829 0.623493
    outer loop
      vertex -1 -51.7042 9.4292
      vertex 1 -51.4232 9.07684
      vertex -1 -51.4232 9.07684
    endloop
  endfacet
  facet normal 0 -0.222521 0.974928
    outer loop
      vertex -1 -49.3353 8.60029
      vertex 1 -49.7747 8.5
      vertex 1 -49.3353 8.60029
    endloop
  endfacet
  facet normal 0 -0.222521 0.974928
    outer loop
      vertex 1 -49.7747 8.5
      vertex -1 -49.3353 8.60029
      vertex -1 -49.7747 8.5
    endloop
  endfacet
  facet normal 0 -0.901011 0.433797
    outer loop
      vertex -1 -48.2958 9.4292
      vertex 1 -48.1003 9.83526
      vertex -1 -48.1003 9.83526
    endloop
  endfacet
  facet normal 0 -0.901011 0.433797
    outer loop
      vertex 1 -48.1003 9.83526
      vertex -1 -48.2958 9.4292
      vertex 1 -48.2958 9.4292
    endloop
  endfacet
  facet normal 0 -0.974928 0.222522
    outer loop
      vertex -1 -48.1003 9.83526
      vertex 1 -48 10.2747
      vertex -1 -48 10.2747
    endloop
  endfacet
  facet normal 0 -0.974928 0.222522
    outer loop
      vertex 1 -48 10.2747
      vertex -1 -48.1003 9.83526
      vertex 1 -48.1003 9.83526
    endloop
  endfacet
  facet normal 0 -0.433852 0.900984
    outer loop
      vertex -1 -48.9292 8.79584
      vertex 1 -49.3353 8.60029
      vertex 1 -48.9292 8.79584
    endloop
  endfacet
  facet normal 0 -0.433852 0.900984
    outer loop
      vertex 1 -49.3353 8.60029
      vertex -1 -48.9292 8.79584
      vertex -1 -49.3353 8.60029
    endloop
  endfacet
  facet normal 0 -0.781829 0.623493
    outer loop
      vertex -1 -48.5768 9.07684
      vertex 1 -48.2958 9.4292
      vertex -1 -48.2958 9.4292
    endloop
  endfacet
  facet normal 0 -0.781829 0.623493
    outer loop
      vertex 1 -48.2958 9.4292
      vertex -1 -48.5768 9.07684
      vertex 1 -48.5768 9.07684
    endloop
  endfacet
  facet normal 0 -0.62345 0.781864
    outer loop
      vertex -1 -48.5768 9.07684
      vertex 1 -48.9292 8.79584
      vertex 1 -48.5768 9.07684
    endloop
  endfacet
  facet normal 0 -0.62345 0.781864
    outer loop
      vertex 1 -48.9292 8.79584
      vertex -1 -48.5768 9.07684
      vertex -1 -48.9292 8.79584
    endloop
  endfacet
  facet normal 0 0 -1
    outer loop
      vertex -1 49.7747 18.5
      vertex 1 50.2253 18.5
      vertex 1 49.7747 18.5
    endloop
  endfacet
  facet normal -0 0 -1
    outer loop
      vertex 1 50.2253 18.5
      vertex -1 49.7747 18.5
      vertex -1 50.2253 18.5
    endloop
  endfacet
  facet normal 0 -0.62345 -0.781864
    outer loop
      vertex -1 51.0708 18.2042
      vertex 1 51.4232 17.9232
      vertex 1 51.0708 18.2042
    endloop
  endfacet
  facet normal -0 -0.62345 -0.781864
    outer loop
      vertex 1 51.4232 17.9232
      vertex -1 51.0708 18.2042
      vertex -1 51.4232 17.9232
    endloop
  endfacet
  facet normal 0 -0.433762 -0.901027
    outer loop
      vertex -1 50.6647 18.3997
      vertex 1 51.0708 18.2042
      vertex 1 50.6647 18.3997
    endloop
  endfacet
  facet normal -0 -0.433762 -0.901027
    outer loop
      vertex 1 51.0708 18.2042
      vertex -1 50.6647 18.3997
      vertex -1 51.0708 18.2042
    endloop
  endfacet
  facet normal 0 -0.901027 -0.433762
    outer loop
      vertex -1 51.8997 17.1647
      vertex 1 51.7042 17.5708
      vertex -1 51.7042 17.5708
    endloop
  endfacet
  facet normal 0 -0.901027 -0.433762
    outer loop
      vertex 1 51.7042 17.5708
      vertex -1 51.8997 17.1647
      vertex 1 51.8997 17.1647
    endloop
  endfacet
  facet normal 0 -0.222542 -0.974923
    outer loop
      vertex -1 50.2253 18.5
      vertex 1 50.6647 18.3997
      vertex 1 50.2253 18.5
    endloop
  endfacet
  facet normal -0 -0.222542 -0.974923
    outer loop
      vertex 1 50.6647 18.3997
      vertex -1 50.2253 18.5
      vertex -1 50.6647 18.3997
    endloop
  endfacet
  facet normal 0 -0.781864 -0.62345
    outer loop
      vertex -1 51.7042 17.5708
      vertex 1 51.4232 17.9232
      vertex -1 51.4232 17.9232
    endloop
  endfacet
  facet normal 0 -0.781864 -0.62345
    outer loop
      vertex 1 51.4232 17.9232
      vertex -1 51.7042 17.5708
      vertex 1 51.7042 17.5708
    endloop
  endfacet
  facet normal 0 -0.974923 -0.222542
    outer loop
      vertex -1 52 16.7253
      vertex 1 51.8997 17.1647
      vertex -1 51.8997 17.1647
    endloop
  endfacet
  facet normal 0 -0.974923 -0.222542
    outer loop
      vertex 1 51.8997 17.1647
      vertex -1 52 16.7253
      vertex 1 52 16.7253
    endloop
  endfacet
  facet normal 0 -1 0
    outer loop
      vertex -1 52 10.2747
      vertex 1 52 16.7253
      vertex -1 52 16.7253
    endloop
  endfacet
  facet normal 0 -1 -0
    outer loop
      vertex 1 52 16.7253
      vertex -1 52 10.2747
      vertex 1 52 10.2747
    endloop
  endfacet
  facet normal 0 1 -0
    outer loop
      vertex 1 48 10.2747
      vertex -1 48 16.7253
      vertex 1 48 16.7253
    endloop
  endfacet
  facet normal 0 1 0
    outer loop
      vertex -1 48 16.7253
      vertex 1 48 10.2747
      vertex -1 48 10.2747
    endloop
  endfacet
  facet normal 0 0.781864 -0.62345
    outer loop
      vertex 1 48.2958 17.5708
      vertex -1 48.5768 17.9232
      vertex 1 48.5768 17.9232
    endloop
  endfacet
  facet normal 0 0.781864 -0.62345
    outer loop
      vertex -1 48.5768 17.9232
      vertex 1 48.2958 17.5708
      vertex -1 48.2958 17.5708
    endloop
  endfacet
  facet normal 0 0.901027 -0.433762
    outer loop
      vertex 1 48.1003 17.1647
      vertex -1 48.2958 17.5708
      vertex 1 48.2958 17.5708
    endloop
  endfacet
  facet normal 0 0.901027 -0.433762
    outer loop
      vertex -1 48.2958 17.5708
      vertex 1 48.1003 17.1647
      vertex -1 48.1003 17.1647
    endloop
  endfacet
  facet normal 0 0.433762 -0.901027
    outer loop
      vertex -1 48.9292 18.2042
      vertex 1 49.3353 18.3997
      vertex 1 48.9292 18.2042
    endloop
  endfacet
  facet normal 0 0.433762 -0.901027
    outer loop
      vertex 1 49.3353 18.3997
      vertex -1 48.9292 18.2042
      vertex -1 49.3353 18.3997
    endloop
  endfacet
  facet normal 0 0.974923 -0.222542
    outer loop
      vertex 1 48 16.7253
      vertex -1 48.1003 17.1647
      vertex 1 48.1003 17.1647
    endloop
  endfacet
  facet normal 0 0.974923 -0.222542
    outer loop
      vertex -1 48.1003 17.1647
      vertex 1 48 16.7253
      vertex -1 48 16.7253
    endloop
  endfacet
  facet normal 0 0.62345 -0.781864
    outer loop
      vertex -1 48.5768 17.9232
      vertex 1 48.9292 18.2042
      vertex 1 48.5768 17.9232
    endloop
  endfacet
  facet normal 0 0.62345 -0.781864
    outer loop
      vertex 1 48.9292 18.2042
      vertex -1 48.5768 17.9232
      vertex -1 48.9292 18.2042
    endloop
  endfacet
  facet normal 0 0.222542 -0.974923
    outer loop
      vertex -1 49.3353 18.3997
      vertex 1 49.7747 18.5
      vertex 1 49.3353 18.3997
    endloop
  endfacet
  facet normal 0 0.222542 -0.974923
    outer loop
      vertex 1 49.7747 18.5
      vertex -1 49.3353 18.3997
      vertex -1 49.7747 18.5
    endloop
  endfacet
  facet normal 0 0.974928 0.222522
    outer loop
      vertex 1 48.1003 9.83526
      vertex -1 48 10.2747
      vertex 1 48 10.2747
    endloop
  endfacet
  facet normal 0 0.974928 0.222522
    outer loop
      vertex -1 48 10.2747
      vertex 1 48.1003 9.83526
      vertex -1 48.1003 9.83526
    endloop
  endfacet
  facet normal -0 0.433852 0.900984
    outer loop
      vertex -1 49.3353 8.60029
      vertex 1 48.9292 8.79584
      vertex 1 49.3353 8.60029
    endloop
  endfacet
  facet normal 0 0.433852 0.900984
    outer loop
      vertex 1 48.9292 8.79584
      vertex -1 49.3353 8.60029
      vertex -1 48.9292 8.79584
    endloop
  endfacet
  facet normal -0 0 1
    outer loop
      vertex -1 50.2253 8.5
      vertex 1 49.7747 8.5
      vertex 1 50.2253 8.5
    endloop
  endfacet
  facet normal 0 0 1
    outer loop
      vertex 1 49.7747 8.5
      vertex -1 50.2253 8.5
      vertex -1 49.7747 8.5
    endloop
  endfacet
  facet normal 0 0.901011 0.433797
    outer loop
      vertex 1 48.2958 9.4292
      vertex -1 48.1003 9.83526
      vertex 1 48.1003 9.83526
    endloop
  endfacet
  facet normal 0 0.901011 0.433797
    outer loop
      vertex -1 48.1003 9.83526
      vertex 1 48.2958 9.4292
      vertex -1 48.2958 9.4292
    endloop
  endfacet
  facet normal -0 0.222521 0.974928
    outer loop
      vertex -1 49.7747 8.5
      vertex 1 49.3353 8.60029
      vertex 1 49.7747 8.5
    endloop
  endfacet
  facet normal 0 0.222521 0.974928
    outer loop
      vertex 1 49.3353 8.60029
      vertex -1 49.7747 8.5
      vertex -1 49.3353 8.60029
    endloop
  endfacet
  facet normal -0 0.62345 0.781864
    outer loop
      vertex -1 48.9292 8.79584
      vertex 1 48.5768 9.07684
      vertex 1 48.9292 8.79584
    endloop
  endfacet
  facet normal 0 0.62345 0.781864
    outer loop
      vertex 1 48.5768 9.07684
      vertex -1 48.9292 8.79584
      vertex -1 48.5768 9.07684
    endloop
  endfacet
  facet normal 0 0.781829 0.623493
    outer loop
      vertex 1 48.5768 9.07684
      vertex -1 48.2958 9.4292
      vertex 1 48.2958 9.4292
    endloop
  endfacet
  facet normal 0 0.781829 0.623493
    outer loop
      vertex -1 48.2958 9.4292
      vertex 1 48.5768 9.07684
      vertex -1 48.5768 9.07684
    endloop
  endfacet
  facet normal 0 -0.222521 0.974928
    outer loop
      vertex -1 50.6647 8.60029
      vertex 1 50.2253 8.5
      vertex 1 50.6647 8.60029
    endloop
  endfacet
  facet normal 0 -0.222521 0.974928
    outer loop
      vertex 1 50.2253 8.5
      vertex -1 50.6647 8.60029
      vertex -1 50.2253 8.5
    endloop
  endfacet
  facet normal 0 -0.901011 0.433797
    outer loop
      vertex -1 51.7042 9.4292
      vertex 1 51.8997 9.83526
      vertex -1 51.8997 9.83526
    endloop
  endfacet
  facet normal 0 -0.901011 0.433797
    outer loop
      vertex 1 51.8997 9.83526
      vertex -1 51.7042 9.4292
      vertex 1 51.7042 9.4292
    endloop
  endfacet
  facet normal 0 -0.974928 0.222522
    outer loop
      vertex -1 51.8997 9.83526
      vertex 1 52 10.2747
      vertex -1 52 10.2747
    endloop
  endfacet
  facet normal 0 -0.974928 0.222522
    outer loop
      vertex 1 52 10.2747
      vertex -1 51.8997 9.83526
      vertex 1 51.8997 9.83526
    endloop
  endfacet
  facet normal 0 -0.433852 0.900984
    outer loop
      vertex -1 51.0708 8.79584
      vertex 1 50.6647 8.60029
      vertex 1 51.0708 8.79584
    endloop
  endfacet
  facet normal 0 -0.433852 0.900984
    outer loop
      vertex 1 50.6647 8.60029
      vertex -1 51.0708 8.79584
      vertex -1 50.6647 8.60029
    endloop
  endfacet
  facet normal 0 -0.781829 0.623493
    outer loop
      vertex -1 51.4232 9.07684
      vertex 1 51.7042 9.4292
      vertex -1 51.7042 9.4292
    endloop
  endfacet
  facet normal 0 -0.781829 0.623493
    outer loop
      vertex 1 51.7042 9.4292
      vertex -1 51.4232 9.07684
      vertex 1 51.4232 9.07684
    endloop
  endfacet
  facet normal 0 -0.62345 0.781864
    outer loop
      vertex -1 51.4232 9.07684
      vertex 1 51.0708 8.79584
      vertex 1 51.4232 9.07684
    endloop
  endfacet
  facet normal 0 -0.62345 0.781864
    outer loop
      vertex 1 51.0708 8.79584
      vertex -1 51.4232 9.07684
      vertex -1 51.0708 8.79584
    endloop
  endfacet
  facet normal -1 0 0
    outer loop
      vertex -8 -57.5 0.5
      vertex -8 57.5 4
      vertex -8 57.5 0.5
    endloop
  endfacet
  facet normal -1 -0 0
    outer loop
      vertex -8 57.5 4
      vertex -8 -57.5 0.5
      vertex -8 -57.5 4
    endloop
  endfacet
  facet normal -0 0 1
    outer loop
      vertex -5.05 27.75 4
      vertex -2.95 -27.75 4
      vertex -2.95 27.75 4
    endloop
  endfacet
  facet normal 0 0 1
    outer loop
      vertex -2.95 -27.75 4
      vertex -5.05 27.75 4
      vertex -5.05 -27.75 4
    endloop
  endfacet
  facet normal 0 0 1
    outer loop
      vertex -2.95 27.75 4
      vertex 0 57.5 4
      vertex -2.95 29.75 4
    endloop
  endfacet
  facet normal 0 0 1
    outer loop
      vertex 0 57.5 4
      vertex -5.05 29.75 4
      vertex -2.95 29.75 4
    endloop
  endfacet
  facet normal 0 0 1
    outer loop
      vertex -8 57.5 4
      vertex -5.05 27.75 4
      vertex -5.05 29.75 4
    endloop
  endfacet
  facet normal 0 0 1
    outer loop
      vertex -5.05 27.75 4
      vertex -8 57.5 4
      vertex -5.05 -27.75 4
    endloop
  endfacet
  facet normal 0 0 1
    outer loop
      vertex -8 -57.5 4
      vertex -5.05 -27.75 4
      vertex -8 57.5 4
    endloop
  endfacet
  facet normal -0 0 1
    outer loop
      vertex -8 57.5 4
      vertex -5.05 29.75 4
      vertex 0 57.5 4
    endloop
  endfacet
  facet normal 0 0 1
    outer loop
      vertex 0 57.5 4
      vertex -2.95 27.75 4
      vertex 0 -57.5 4
    endloop
  endfacet
  facet normal -0 0 1
    outer loop
      vertex -2.95 -27.75 4
      vertex 0 -57.5 4
      vertex -2.95 27.75 4
    endloop
  endfacet
  facet normal -0 0 1
    outer loop
      vertex -2.95 -29.75 4
      vertex 0 -57.5 4
      vertex -2.95 -27.75 4
    endloop
  endfacet
  facet normal -0 0 1
    outer loop
      vertex -5.05 -29.75 4
      vertex 0 -57.5 4
      vertex -2.95 -29.75 4
    endloop
  endfacet
  facet normal 0 0 1
    outer loop
      vertex -5.05 -29.75 4
      vertex -8 -57.5 4
      vertex 0 -57.5 4
    endloop
  endfacet
  facet normal 0 0 1
    outer loop
      vertex -5.05 -27.75 4
      vertex -8 -57.5 4
      vertex -5.05 -29.75 4
    endloop
  endfacet
  facet normal 1 -0 0
    outer loop
      vertex 0 -57.5 4
      vertex 0 57.5 0.5
      vertex 0 57.5 4
    endloop
  endfacet
  facet normal 1 0 0
    outer loop
      vertex 0 57.5 0.5
      vertex 0 -57.5 4
      vertex 0 -57.5 0.5
    endloop
  endfacet
  facet normal 0 0 -1
    outer loop
      vertex -0.5 -57 0
      vertex -1.95 -55.6 0
      vertex -0.5 57 0
    endloop
  endfacet
  facet normal 0 0 -1
    outer loop
      vertex -0.5 -57 0
      vertex -6.05 -55.6 0
      vertex -1.95 -55.6 0
    endloop
  endfacet
  facet normal -0 0 -1
    outer loop
      vertex -6.05 -55.6 0
      vertex -7.5 -57 0
      vertex -6.05 55.6 0
    endloop
  endfacet
  facet normal 0 0 -1
    outer loop
      vertex -7.5 -57 0
      vertex -6.05 -55.6 0
      vertex -0.5 -57 0
    endloop
  endfacet
  facet normal 0 0 -1
    outer loop
      vertex -1.95 55.6 0
      vertex -0.5 57 0
      vertex -1.95 -55.6 0
    endloop
  endfacet
  facet normal 0 0 -1
    outer loop
      vertex -6.05 55.6 0
      vertex -0.5 57 0
      vertex -1.95 55.6 0
    endloop
  endfacet
  facet normal 0 0 -1
    outer loop
      vertex -6.05 55.6 0
      vertex -7.5 57 0
      vertex -0.5 57 0
    endloop
  endfacet
  facet normal 0 0 -1
    outer loop
      vertex -7.5 57 0
      vertex -6.05 55.6 0
      vertex -7.5 -57 0
    endloop
  endfacet
  facet normal 0 -1 0
    outer loop
      vertex -8 -57.5 0.5
      vertex 0 -57.5 4
      vertex -8 -57.5 4
    endloop
  endfacet
  facet normal 0 -1 -0
    outer loop
      vertex 0 -57.5 4
      vertex -8 -57.5 0.5
      vertex 0 -57.5 0.5
    endloop
  endfacet
  facet normal 0 1 -0
    outer loop
      vertex 0 57.5 0.5
      vertex -8 57.5 4
      vertex 0 57.5 4
    endloop
  endfacet
  facet normal 0 1 0
    outer loop
      vertex -8 57.5 4
      vertex 0 57.5 0.5
      vertex -8 57.5 0.5
    endloop
  endfacet
  facet normal 0 -0.707107 -0.707107
    outer loop
      vertex -7.5 -57 0
      vertex 0 -57.5 0.5
      vertex -8 -57.5 0.5
    endloop
  endfacet
  facet normal 0 -0.707107 -0.707107
    outer loop
      vertex 0 -57.5 0.5
      vertex -7.5 -57 0
      vertex -0.5 -57 0
    endloop
  endfacet
  facet normal -0.707107 0 -0.707107
    outer loop
      vertex -7.5 -57 0
      vertex -8 57.5 0.5
      vertex -7.5 57 0
    endloop
  endfacet
  facet normal -0.707107 -0 -0.707107
    outer loop
      vertex -8 57.5 0.5
      vertex -7.5 -57 0
      vertex -8 -57.5 0.5
    endloop
  endfacet
  facet normal 0 0.707107 -0.707107
    outer loop
      vertex -0.5 57 0
      vertex -8 57.5 0.5
      vertex 0 57.5 0.5
    endloop
  endfacet
  facet normal 0 0.707107 -0.707107
    outer loop
      vertex -8 57.5 0.5
      vertex -0.5 57 0
      vertex -7.5 57 0
    endloop
  endfacet
  facet normal 0.707107 0 -0.707107
    outer loop
      vertex 0 57.5 0.5
      vertex -0.5 -57 0
      vertex -0.5 57 0
    endloop
  endfacet
  facet normal 0.707107 0 -0.707107
    outer loop
      vertex -0.5 -57 0
      vertex 0 57.5 0.5
      vertex 0 -57.5 0.5
    endloop
  endfacet
  facet normal 1 -0 0
    outer loop
      vertex -6.05 -55.6 1.05
      vertex -6.05 55.6 0
      vertex -6.05 55.6 1.05
    endloop
  endfacet
  facet normal 1 0 0
    outer loop
      vertex -6.05 55.6 0
      vertex -6.05 -55.6 1.05
      vertex -6.05 -55.6 0
    endloop
  endfacet
  facet normal 0 0 -1
    outer loop
      vertex -5.05 -55.6 2.05
      vertex -2.95 -29.75 2.05
      vertex -2.95 -55.6 2.05
    endloop
  endfacet
  facet normal -0 0 -1
    outer loop
      vertex -2.95 -29.75 2.05
      vertex -5.05 -55.6 2.05
      vertex -5.05 -29.75 2.05
    endloop
  endfacet
  facet normal 0 0 -1
    outer loop
      vertex -5.05 29.75 2.05
      vertex -2.95 55.6 2.05
      vertex -2.95 29.75 2.05
    endloop
  endfacet
  facet normal -0 0 -1
    outer loop
      vertex -2.95 55.6 2.05
      vertex -5.05 29.75 2.05
      vertex -5.05 55.6 2.05
    endloop
  endfacet
  facet normal 0 0 -1
    outer loop
      vertex -5.05 -27.75 2.05
      vertex -2.95 27.75 2.05
      vertex -2.95 -27.75 2.05
    endloop
  endfacet
  facet normal -0 0 -1
    outer loop
      vertex -2.95 27.75 2.05
      vertex -5.05 -27.75 2.05
      vertex -5.05 27.75 2.05
    endloop
  endfacet
  facet normal -1 0 0
    outer loop
      vertex -1.95 -55.6 0
      vertex -1.95 55.6 1.05
      vertex -1.95 55.6 0
    endloop
  endfacet
  facet normal -1 -0 0
    outer loop
      vertex -1.95 55.6 1.05
      vertex -1.95 -55.6 0
      vertex -1.95 -55.6 1.05
    endloop
  endfacet
  facet normal 0 -1 0
    outer loop
      vertex -6.05 55.6 0
      vertex -5.05 55.6 2.05
      vertex -6.05 55.6 1.05
    endloop
  endfacet
  facet normal 0 -1 -0
    outer loop
      vertex -5.05 55.6 2.05
      vertex -6.05 55.6 0
      vertex -2.95 55.6 2.05
    endloop
  endfacet
  facet normal 0 -1 0
    outer loop
      vertex -1.95 55.6 0
      vertex -2.95 55.6 2.05
      vertex -6.05 55.6 0
    endloop
  endfacet
  facet normal 0 -1 0
    outer loop
      vertex -2.95 55.6 2.05
      vertex -1.95 55.6 0
      vertex -1.95 55.6 1.05
    endloop
  endfacet
  facet normal 0 1 -0
    outer loop
      vertex -1.95 -55.6 0
      vertex -2.95 -55.6 2.05
      vertex -1.95 -55.6 1.05
    endloop
  endfacet
  facet normal 0 1 0
    outer loop
      vertex -2.95 -55.6 2.05
      vertex -1.95 -55.6 0
      vertex -5.05 -55.6 2.05
    endloop
  endfacet
  facet normal 0 1 0
    outer loop
      vertex -6.05 -55.6 0
      vertex -5.05 -55.6 2.05
      vertex -1.95 -55.6 0
    endloop
  endfacet
  facet normal 0 1 0
    outer loop
      vertex -5.05 -55.6 2.05
      vertex -6.05 -55.6 0
      vertex -6.05 -55.6 1.05
    endloop
  endfacet
  facet normal -0.707107 0 -0.707107
    outer loop
      vertex -1.95 55.6 1.05
      vertex -2.95 29.75 2.05
      vertex -2.95 55.6 2.05
    endloop
  endfacet
  facet normal -0.707107 0 -0.707107
    outer loop
      vertex -1.95 55.6 1.05
      vertex -2.95 27.75 2.05
      vertex -2.95 29.75 2.05
    endloop
  endfacet
  facet normal -0.707107 0 -0.707107
    outer loop
      vertex -1.95 55.6 1.05
      vertex -2.95 -27.75 2.05
      vertex -2.95 27.75 2.05
    endloop
  endfacet
  facet normal -0.707107 0 -0.707107
    outer loop
      vertex -1.95 -55.6 1.05
      vertex -2.95 -27.75 2.05
      vertex -1.95 55.6 1.05
    endloop
  endfacet
  facet normal -0.707107 -0 -0.707107
    outer loop
      vertex -2.95 -27.75 2.05
      vertex -1.95 -55.6 1.05
      vertex -2.95 -29.75 2.05
    endloop
  endfacet
  facet normal -0.707107 -0 -0.707107
    outer loop
      vertex -2.95 -29.75 2.05
      vertex -1.95 -55.6 1.05
      vertex -2.95 -55.6 2.05
    endloop
  endfacet
  facet normal 0.707107 0 -0.707107
    outer loop
      vertex -5.05 29.75 2.05
      vertex -6.05 55.6 1.05
      vertex -5.05 55.6 2.05
    endloop
  endfacet
  facet normal 0.707107 0 -0.707107
    outer loop
      vertex -5.05 27.75 2.05
      vertex -6.05 55.6 1.05
      vertex -5.05 29.75 2.05
    endloop
  endfacet
  facet normal 0.707107 0 -0.707107
    outer loop
      vertex -5.05 -27.75 2.05
      vertex -6.05 55.6 1.05
      vertex -5.05 27.75 2.05
    endloop
  endfacet
  facet normal 0.707107 0 -0.707107
    outer loop
      vertex -6.05 -55.6 1.05
      vertex -5.05 -27.75 2.05
      vertex -5.05 -29.75 2.05
    endloop
  endfacet
  facet normal 0.707107 0 -0.707107
    outer loop
      vertex -6.05 -55.6 1.05
      vertex -5.05 -29.75 2.05
      vertex -5.05 -55.6 2.05
    endloop
  endfacet
  facet normal 0.707107 0 -0.707107
    outer loop
      vertex -5.05 -27.75 2.05
      vertex -6.05 -55.6 1.05
      vertex -6.05 55.6 1.05
    endloop
  endfacet
  facet normal 1 -0 0
    outer loop
      vertex -5.05 -29.75 4
      vertex -5.05 -27.75 2.05
      vertex -5.05 -27.75 4
    endloop
  endfacet
  facet normal 1 0 0
    outer loop
      vertex -5.05 -27.75 2.05
      vertex -5.05 -29.75 4
      vertex -5.05 -29.75 2.05
    endloop
  endfacet
  facet normal -1 0 0
    outer loop
      vertex -2.95 -29.75 2.05
      vertex -2.95 -27.75 4
      vertex -2.95 -27.75 2.05
    endloop
  endfacet
  facet normal -1 -0 0
    outer loop
      vertex -2.95 -27.75 4
      vertex -2.95 -29.75 2.05
      vertex -2.95 -29.75 4
    endloop
  endfacet
  facet normal 0 1 -0
    outer loop
      vertex -2.95 -29.75 2.05
      vertex -5.05 -29.75 4
      vertex -2.95 -29.75 4
    endloop
  endfacet
  facet normal 0 1 0
    outer loop
      vertex -5.05 -29.75 4
      vertex -2.95 -29.75 2.05
      vertex -5.05 -29.75 2.05
    endloop
  endfacet
  facet normal 0 -1 0
    outer loop
      vertex -5.05 -27.75 2.05
      vertex -2.95 -27.75 4
      vertex -5.05 -27.75 4
    endloop
  endfacet
  facet normal 0 -1 -0
    outer loop
      vertex -2.95 -27.75 4
      vertex -5.05 -27.75 2.05
      vertex -2.95 -27.75 2.05
    endloop
  endfacet
  facet normal 1 -0 0
    outer loop
      vertex -5.05 27.75 4
      vertex -5.05 29.75 2.05
      vertex -5.05 29.75 4
    endloop
  endfacet
  facet normal 1 0 0
    outer loop
      vertex -5.05 29.75 2.05
      vertex -5.05 27.75 4
      vertex -5.05 27.75 2.05
    endloop
  endfacet
  facet normal -1 0 0
    outer loop
      vertex -2.95 27.75 2.05
      vertex -2.95 29.75 4
      vertex -2.95 29.75 2.05
    endloop
  endfacet
  facet normal -1 -0 0
    outer loop
      vertex -2.95 29.75 4
      vertex -2.95 27.75 2.05
      vertex -2.95 27.75 4
    endloop
  endfacet
  facet normal 0 -1 0
    outer loop
      vertex -5.05 29.75 2.05
      vertex -2.95 29.75 4
      vertex -5.05 29.75 4
    endloop
  endfacet
  facet normal 0 -1 -0
    outer loop
      vertex -2.95 29.75 4
      vertex -5.05 29.75 2.05
      vertex -2.95 29.75 2.05
    endloop
  endfacet
  facet normal 0 1 -0
    outer loop
      vertex -2.95 27.75 2.05
      vertex -5.05 27.75 4
      vertex -2.95 27.75 4
    endloop
  endfacet
  facet normal 0 1 0
    outer loop
      vertex -5.05 27.75 4
      vertex -2.95 27.75 2.05
      vertex -5.05 27.75 2.05
    endloop
  endfacet
  facet normal 1 -0 1.06624e-07
    outer loop
      vertex -7.94263e-07 -57.5 38
      vertex -3.67767e-07 57.5 34
      vertex -7.94263e-07 57.5 38
    endloop
  endfacet
  facet normal 1 0 1.06624e-07
    outer loop
      vertex -3.67767e-07 57.5 34
      vertex -7.94263e-07 -57.5 38
      vertex -3.67767e-07 -57.5 34
    endloop
  endfacet
  facet normal 0 1 0
    outer loop
      vertex -3.67767e-07 57.5 34
      vertex -8 57.5 38
      vertex -7.94263e-07 57.5 38
    endloop
  endfacet
  facet normal -0 0 1
    outer loop
      vertex -8 57.5 38
      vertex -7.94263e-07 -57.5 38
      vertex -7.94263e-07 57.5 38
    endloop
  endfacet
  facet normal 0 0 1
    outer loop
      vertex -7.94263e-07 -57.5 38
      vertex -8 57.5 38
      vertex -8 -57.5 38
    endloop
  endfacet
  facet normal -0 -1 -0
    outer loop
      vertex -7.94263e-07 -57.5 38
      vertex -8 -57.5 38
      vertex -3.67767e-07 -57.5 34
    endloop
  endfacet
  facet normal -0.447214 0 -0.894427
    outer loop
      vertex -8 -57.5 38
      vertex -3.67767e-07 57.5 34
      vertex -3.67767e-07 -57.5 34
    endloop
  endfacet
  facet normal -0.447214 0 -0.894427
    outer loop
      vertex -3.67767e-07 57.5 34
      vertex -8 -57.5 38
      vertex -8 57.5 38
    endloop
  endfacet
  facet normal -1 0 0
    outer loop
      vertex -5.95 -55.4 40
      vertex -5.95 55.4 40.95
      vertex -5.95 55.4 40
    endloop
  endfacet
  facet normal -1 -0 0
    outer loop
      vertex -5.95 55.4 40.95
      vertex -5.95 -55.4 40
      vertex -5.95 -55.4 40.95
    endloop
  endfacet
  facet normal -0 0 1
    outer loop
      vertex -4.95 55.4 41.95
      vertex -3.05 -55.4 41.95
      vertex -3.05 55.4 41.95
    endloop
  endfacet
  facet normal 0 0 1
    outer loop
      vertex -3.05 -55.4 41.95
      vertex -4.95 55.4 41.95
      vertex -4.95 -55.4 41.95
    endloop
  endfacet
  facet normal 1 -0 0
    outer loop
      vertex -2.05 -55.4 40.95
      vertex -2.05 55.4 40
      vertex -2.05 55.4 40.95
    endloop
  endfacet
  facet normal 1 0 0
    outer loop
      vertex -2.05 55.4 40
      vertex -2.05 -55.4 40.95
      vertex -2.05 -55.4 40
    endloop
  endfacet
  facet normal 0 -1 0
    outer loop
      vertex -5.95 -55.4 40
      vertex -4.95 -55.4 41.95
      vertex -5.95 -55.4 40.95
    endloop
  endfacet
  facet normal 0 -1 -0
    outer loop
      vertex -4.95 -55.4 41.95
      vertex -5.95 -55.4 40
      vertex -3.05 -55.4 41.95
    endloop
  endfacet
  facet normal 0 -1 0
    outer loop
      vertex -2.05 -55.4 40
      vertex -3.05 -55.4 41.95
      vertex -5.95 -55.4 40
    endloop
  endfacet
  facet normal 0 -1 0
    outer loop
      vertex -3.05 -55.4 41.95
      vertex -2.05 -55.4 40
      vertex -2.05 -55.4 40.95
    endloop
  endfacet
  facet normal 0 1 -0
    outer loop
      vertex -2.05 55.4 40
      vertex -3.05 55.4 41.95
      vertex -2.05 55.4 40.95
    endloop
  endfacet
  facet normal 0 1 0
    outer loop
      vertex -3.05 55.4 41.95
      vertex -2.05 55.4 40
      vertex -4.95 55.4 41.95
    endloop
  endfacet
  facet normal 0 1 0
    outer loop
      vertex -5.95 55.4 40
      vertex -4.95 55.4 41.95
      vertex -2.05 55.4 40
    endloop
  endfacet
  facet normal 0 1 0
    outer loop
      vertex -4.95 55.4 41.95
      vertex -5.95 55.4 40
      vertex -5.95 55.4 40.95
    endloop
  endfacet
  facet normal 0.707107 -0 0.707107
    outer loop
      vertex -3.05 -55.4 41.95
      vertex -2.05 55.4 40.95
      vertex -3.05 55.4 41.95
    endloop
  endfacet
  facet normal 0.707107 0 0.707107
    outer loop
      vertex -2.05 55.4 40.95
      vertex -3.05 -55.4 41.95
      vertex -2.05 -55.4 40.95
    endloop
  endfacet
  facet normal -0.707107 0 0.707107
    outer loop
      vertex -5.95 -55.4 40.95
      vertex -4.95 55.4 41.95
      vertex -5.95 55.4 40.95
    endloop
  endfacet
  facet normal -0.707107 0 0.707107
    outer loop
      vertex -4.95 55.4 41.95
      vertex -5.95 -55.4 40.95
      vertex -4.95 -55.4 41.95
    endloop
  endfacet
  facet normal -1 0 0
    outer loop
      vertex -8 -57.5 38
      vertex -8 57.5 40
      vertex -8 57.5 38
    endloop
  endfacet
  facet normal -1 -0 0
    outer loop
      vertex -8 57.5 40
      vertex -8 -57.5 38
      vertex -8 -57.5 40
    endloop
  endfacet
  facet normal 0 0 1
    outer loop
      vertex 0 57.5 40
      vertex -2.05 55.4 40
      vertex 0 -57.5 40
    endloop
  endfacet
  facet normal 0 0 1
    outer loop
      vertex 0 57.5 40
      vertex -5.95 55.4 40
      vertex -2.05 55.4 40
    endloop
  endfacet
  facet normal 0 0 1
    outer loop
      vertex -5.95 55.4 40
      vertex -8 57.5 40
      vertex -5.95 -55.4 40
    endloop
  endfacet
  facet normal -0 0 1
    outer loop
      vertex -8 57.5 40
      vertex -5.95 55.4 40
      vertex 0 57.5 40
    endloop
  endfacet
  facet normal -0 0 1
    outer loop
      vertex -2.05 -55.4 40
      vertex 0 -57.5 40
      vertex -2.05 55.4 40
    endloop
  endfacet
  facet normal -0 0 1
    outer loop
      vertex -5.95 -55.4 40
      vertex 0 -57.5 40
      vertex -2.05 -55.4 40
    endloop
  endfacet
  facet normal 0 0 1
    outer loop
      vertex -5.95 -55.4 40
      vertex -8 -57.5 40
      vertex 0 -57.5 40
    endloop
  endfacet
  facet normal 0 0 1
    outer loop
      vertex -8 -57.5 40
      vertex -5.95 -55.4 40
      vertex -8 57.5 40
    endloop
  endfacet
  facet normal 1 -0 0
    outer loop
      vertex 0 -57.5 40
      vertex 0 57.5 38
      vertex 0 57.5 40
    endloop
  endfacet
  facet normal 1 0 0
    outer loop
      vertex 0 57.5 38
      vertex 0 -57.5 40
      vertex 0 -57.5 38
    endloop
  endfacet
  facet normal 0 1 -0
    outer loop
      vertex 0 57.5 38
      vertex -8 57.5 40
      vertex 0 57.5 40
    endloop
  endfacet
  facet normal 0 1 0
    outer loop
      vertex -8 57.5 40
      vertex 0 57.5 38
      vertex -8 57.5 38
    endloop
  endfacet
  facet normal 0 0 -1
    outer loop
      vertex -8 -57.5 38
      vertex 0 57.5 38
      vertex 0 -57.5 38
    endloop
  endfacet
  facet normal -0 0 -1
    outer loop
      vertex 0 57.5 38
      vertex -8 -57.5 38
      vertex -8 57.5 38
    endloop
  endfacet
  facet normal 0 -1 0
    outer loop
      vertex -8 -57.5 38
      vertex 0 -57.5 40
      vertex -8 -57.5 40
    endloop
  endfacet
  facet normal 0 -1 -0
    outer loop
      vertex 0 -57.5 40
      vertex -8 -57.5 38
      vertex 0 -57.5 38
    endloop
  endfacet
endsolid OpenSCAD_Model
