0
SECTION
2
HEADER
9
$INSUNITS
70
4
9
$ACADVER
1
AC1014
9
$HANDSEED
5
FFFF
0
ENDSEC
0
SECTION
2
TABLES
0
TABLE
2
VPORT
5
8
100
AcDbSymbolTable
0
ENDTAB
0
TABLE
2
LTYPE
5
5
100
AcDbSymbolTable
0
LTYPE
5
14
100
AcDbSymbolTableRecord
100
AcDbLinetypeTableRecord
2
BYBLOCK
70
0
0
LTYPE
5
15
100
AcDbSymbolTableRecord
100
AcDbLinetypeTableRecord
2
BYLAYER
70
0
0
ENDTAB
0
TABLE
2
LAYER
5
2
100
AcDbSymbolTable
70
2
0
LAYER
5
50
100
AcDbSymbolTableRecord
100
AcDbLayerTableRecord
2
0
70
0
6
CONTINUOUS
0
ENDTAB
0
TABLE
2
STYLE
5
3
100
AcDbSymbolTable
70
1
0
STYLE
5
11
100
AcDbSymbolTableRecord
100
AcDbTextStyleTableRecord
2
STANDARD
70
0
0
ENDTAB
0
TABLE
2
VIEW
5
6
100
AcDbSymbolTable
70
0
0
ENDTAB
0
TABLE
2
UCS
5
7
100
AcDbSymbolTable
70
0
0
ENDTAB
0
TABLE
2
APPID
5
9
100
AcDbSymbolTable
70
2
0
APPID
5
12
100
AcDbSymbolTableRecord
100
AcDbRegAppTableRecord
2
ACAD
70
0
0
ENDTAB
0
TABLE
2
DIMSTYLE
5
A
100
AcDbSymbolTable
70
1
0
ENDTAB
0
TABLE
2
BLOCK_RECORD
5
1
100
AcDbSymbolTable
70
1
0
BLOCK_RECORD
5
1F
100
AcDbSymbolTableRecord
100
AcDbBlockTableRecord
2
*MODEL_SPACE
0
BLOCK_RECORD
5
1B
100
AcDbSymbolTableRecord
100
AcDbBlockTableRecord
2
*PAPER_SPACE
0
ENDTAB
0
ENDSEC
0
SECTION
2
BLOCKS
0
BLOCK
5
20
100
AcDbEntity
100
AcDbBlockBegin
2
*MODEL_SPACE
0
ENDBLK
5
21
100
AcDbEntity
100
AcDbBlockEnd
0
BLOCK
5
1C
100
AcDbEntity
100
AcDbBlockBegin
2
*PAPER_SPACE
0
ENDBLK
5
1D
100
AcDbEntity
100
AcDbBlockEnd
0
ENDSEC
0
SECTION
2
ENTITIES
0
LWPOLYLINE
5
100
100
AcDbEntity
8
0
100
AcDbPolyline
90
386
70
1
43
0.0
10
41.170005798339844
20
-4.4400006532669067
10
25.678009986877441
20
-2.4060001969337463
10
25.674004554748535
20
-2.5920009613037109
10
25.658004283905029
20
-2.7660009264945984
10
25.632004737854004
20
-2.9320010542869568
10
25.592010021209717
20
-3.0880013108253479
10
25.542008876800537
20
-3.2360002398490906
10
25.478005409240723
20
-3.3720016479492188
10
25.404007434844971
20
-3.4999999403953552
10
25.316009521484375
20
-3.6180001497268677
10
25.218009948730469
20
-3.728000819683075
10
25.108010768890381
20
-3.8260003924369812
10
24.986007213592529
20
-3.9180013537406921
10
24.850006103515625
20
-3.9980012178421021
10
24.704010486602783
20
-4.0680009126663208
10
24.548003673553467
20
-4.1300010681152344
10
24.378006458282471
20
-4.1820010542869568
10
24.196007251739502
20
-4.224000871181488
10
24.002006053924561
20
-4.258001446723938
10
23.7980055809021
20
-4.2820015549659729
10
23.580009937286377
20
-4.2960014939308167
10
23.352005481719971
20
-4.302000105381012
10
-22.343995571136475
20
-4.302000105381012
10
-22.571995258331299
20
-4.2960014939308167
10
-22.789993286132813
20
-4.2820015549659729
10
-22.993996143341064
20
-4.258001446723938
10
-23.187997341156006
20
-4.224000871181488
10
-23.369996547698975
20
-4.1820010542869568
10
-23.539993762969971
20
-4.1300010681152344
10
-23.695995807647705
20
-4.0680009126663208
10
-23.843994140625
20
-3.9980012178421021
10
-23.977997303009033
20
-3.9180013537406921
10
-24.099996089935303
20
-3.8260003924369812
10
-24.209995269775391
20
-3.728000819683075
10
-24.307994842529297
20
-3.6180001497268677
10
-24.393994808197021
20
-3.4999999403953552
10
-24.469993114471436
20
-3.3720016479492188
10
-24.53399658203125
20
-3.2360002398490906
10
-24.583995342254639
20
-3.0880013108253479
10
-24.623997211456299
20
-2.9320010542869568
10
-24.649994373321533
20
-2.7660009264945984
10
-24.66599702835083
20
-2.5920009613037109
10
-24.667994976043701
20
-2.4060001969337463
10
-40.161995887756348
20
-4.4400006532669067
10
-39.969997406005859
20
-5.8960020542144775
10
-39.187996387481689
20
-5.8960020542144775
10
-38.431994915008545
20
-6.0980015993118286
10
-37.751996517181396
20
-6.4900016784667969
10
-37.197995185852051
20
-7.0440006256103516
10
-36.805996894836426
20
-7.7220022678375244
10
-36.603996753692627
20
-8.4780007600784302
10
-36.603996753692627
20
-9.2620009183883667
10
-36.805996894836426
20
-10.018001794815063
10
-37.197995185852051
20
-10.696001052856445
10
-37.751996517181396
20
-11.250002384185791
10
-38.431994915008545
20
-11.642001867294312
10
-39.187996387481689
20
-11.84400200843811
10
-39.969997406005859
20
-11.84400200843811
10
-40.725994110107422
20
-11.642001867294312
10
-41.405997276306152
20
-11.250002384185791
10
-41.957998275756836
20
-10.696001052856445
10
-42.351999282836914
20
-10.018001794815063
10
-42.551994323730469
20
-9.2620009183883667
10
-43.136000633239746
20
-4.8300018906593323
10
-52.059998512268066
20
-6.002001166343689
10
-51.867995262145996
20
-7.4620020389556885
10
-51.083998680114746
20
-7.4620020389556885
10
-50.327997207641602
20
-7.6640015840530396
10
-49.649996757507324
20
-8.0560016632080078
10
-49.09599781036377
20
-8.6100006103515625
10
-48.705997467041016
20
-9.2880022525787354
10
-48.501996994018555
20
-10.046001672744751
10
-48.501996994018555
20
-10.828001499176025
10
-48.705997467041016
20
-11.584001779556274
10
-49.09599781036377
20
-12.262001037597656
10
-49.649996757507324
20
-12.816002368927002
10
-50.327997207641602
20
-13.208001852035522
10
-51.083998680114746
20
-13.412001132965088
10
-51.867995262145996
20
-13.412001132965088
10
-52.625994682312012
20
-13.208001852035522
10
-53.301997184753418
20
-12.816002368927002
10
-53.857994079589844
20
-12.262001037597656
10
-54.24799919128418
20
-11.584001779556274
10
-54.451994895935059
20
-10.828001499176025
10
-55.033998489379883
20
-6.3940012454986572
10
-63.957996368408203
20
-7.5640010833740234
10
-63.765997886657715
20
-9.0280020236968994
10
-62.983999252319336
20
-9.0280020236968994
10
-62.22599983215332
20
-9.2300015687942505
10
-61.547999382019043
20
-9.6220016479492188
10
-60.993995666503906
20
-10.176000595092773
10
-60.601997375488281
20
-10.854002237319946
10
-60.399999618530273
20
-11.612001657485962
10
-60.399999618530273
20
-12.394001483917236
10
-60.601997375488281
20
-13.150001764297485
10
-60.993995666503906
20
-13.830002546310425
10
-61.547999382019043
20
-14.382002353668213
10
-62.22599983215332
20
-14.774001836776733
10
-62.983999252319336
20
-14.976001977920532
10
-63.765997886657715
20
-14.976001977920532
10
-64.521994590759277
20
-14.774001836776733
10
-65.199999809265137
20
-14.382002353668213
10
-65.753998756408691
20
-13.830002546310425
10
-66.145997047424316
20
-13.150001764297485
10
-66.349997520446777
20
-12.394001483917236
10
-66.933999061584473
20
-7.9560011625289917
10
-75.857996940612793
20
-9.1260015964508057
10
-75.664000511169434
20
-10.596001148223877
10
-74.879999160766602
20
-10.596001148223877
10
-74.124002456665039
20
-10.796002149581909
10
-73.446002006530762
20
-11.190000772476196
10
-72.891998291015625
20
-11.742000579833984
10
-72.5
20
-12.422001361846924
10
-72.295999526977539
20
-13.176001310348511
10
-72.295999526977539
20
-13.960001468658447
10
-72.5
20
-14.718002080917358
10
-72.891998291015625
20
-15.396002531051636
10
-73.446002006530762
20
-15.95000147819519
10
-74.124002456665039
20
-16.342000961303711
10
-74.879999160766602
20
-16.542001962661743
10
-75.664000511169434
20
-16.542001962661743
10
-76.419997215270996
20
-16.342000961303711
10
-77.098002433776855
20
-15.95000147819519
10
-77.65200138092041
20
-15.396002531051636
10
-78.043999671936035
20
-14.718002080917358
10
-78.245997428894043
20
-13.960001468658447
10
-80.989999771118164
20
6.8879997730255127
10
-80.989999771118164
20
7.6699995994567871
10
-80.787992477416992
20
8.4259998798370361
10
-80.395994186401367
20
9.1060000658035278
10
-79.843993186950684
20
9.6579992771148682
10
-79.164004325866699
20
10.052000284194946
10
-78.407998085021973
20
10.252000093460083
10
-77.625999450683594
20
10.252000093460083
10
-76.867995262145996
20
10.052000284194946
10
-76.189994812011719
20
9.6579992771148682
10
-75.636000633239746
20
9.1060000658035278
10
-75.243997573852539
20
8.4259998798370361
10
-75.041999816894531
20
7.6699995994567871
10
-75.041999816894531
20
6.8879997730255127
10
-75.243997573852539
20
6.1299991607666016
10
-75.636000633239746
20
5.4519999027252197
10
-76.189994812011719
20
4.8979997634887695
10
-76.867995262145996
20
4.5079994201660156
10
-77.625999450683594
20
4.3059998750686646
10
-77.476000785827637
20
3.1779995560646057
10
-68.551993370056152
20
4.3499994277954102
10
-69.093995094299316
20
8.4539997577667236
10
-69.093995094299316
20
9.2360001802444458
10
-68.889999389648438
20
9.9939996004104614
10
-68.499999046325684
20
10.672000646591187
10
-67.944002151489258
20
11.225999593734741
10
-67.267999649047852
20
11.618000268936157
10
-66.509995460510254
20
11.820000410079956
10
-65.725998878479004
20
11.820000410079956
10
-64.972000122070313
20
11.618000268936157
10
-64.293999671936035
20
11.225999593734741
10
-63.74000072479248
20
10.672000646591187
10
-63.348002433776855
20
9.9939996004104614
10
-63.143997192382813
20
9.2360001802444458
10
-63.143997192382813
20
8.4539997577667236
10
-63.348002433776855
20
7.6979994773864746
10
-63.74000072479248
20
7.0179998874664307
10
-64.293999671936035
20
6.4659994840621948
10
-64.972000122070313
20
6.0739994049072266
10
-65.725998878479004
20
5.8719998598098755
10
-65.577998161315918
20
4.7399997711181641
10
-56.654000282287598
20
5.9119999408721924
10
-57.196002006530762
20
10.02000093460083
10
-57.196002006530762
20
10.802000761032104
10
-56.99399471282959
20
11.56000018119812
10
-56.601996421813965
20
12.238000631332397
10
-56.04799747467041
20
12.791999578475952
10
-55.369997024536133
20
13.184000253677368
10
-54.611997604370117
20
13.386000394821167
10
-53.829994201660156
20
13.386000394821167
10
-53.073997497558594
20
13.184000253677368
10
-52.393999099731445
20
12.791999578475952
10
-51.841998100280762
20
12.238000631332397
10
-51.449999809265137
20
11.56000018119812
10
-51.247997283935547
20
10.802000761032104
10
-51.247997283935547
20
10.02000093460083
10
-51.449999809265137
20
9.2640000581741333
10
-51.841998100280762
20
8.585999608039856
10
-52.393999099731445
20
8.0319994688034058
10
-53.073997497558594
20
7.6399999856948853
10
-53.829994201660156
20
7.4360001087188721
10
-53.679995536804199
20
6.3020002841949463
10
-44.75799560546875
20
7.4739998579025269
10
-45.297999382019043
20
11.588000059127808
10
-45.297999382019043
20
12.369999885559082
10
-45.093998908996582
20
13.126000165939331
10
-44.703993797302246
20
13.804000616073608
10
-44.149999618530273
20
14.357999563217163
10
-43.471999168395996
20
14.750000238418579
10
-42.715997695922852
20
14.952000379562378
10
-41.93199634552002
20
14.952000379562378
10
-41.175994873046875
20
14.750000238418579
10
-40.49799919128418
20
14.357999563217163
10
-39.941997528076172
20
13.804000616073608
10
-39.551994800567627
20
13.126000165939331
10
-39.347996711730957
20
12.369999885559082
10
-39.347996711730957
20
11.588000059127808
10
-39.551994800567627
20
10.830000638961792
10
-39.941997528076172
20
10.152000188827515
10
-40.49799919128418
20
9.5979994535446167
10
-41.175994873046875
20
9.2059993743896484
10
-41.93199634552002
20
9.0039998292922974
10
-41.781997680664063
20
7.8640002012252808
10
-22.199997901916504
20
10.435999631881714
10
-20.929996967315674
20
13.502000570297241
10
-20.453994274139404
20
14.121999740600586
10
-19.831993579864502
20
14.600000381469727
10
-19.109996557235718
20
14.900000095367432
10
-18.331993818283081
20
15
10
19.340003728866577
20
15
10
20.118005275726318
20
14.900000095367432
10
20.840003490447998
20
14.600000381469727
10
21.462006568908691
20
14.121999740600586
10
21.938004493713379
20
13.502000570297241
10
23.2080078125
20
10.435999631881714
10
42.790007591247559
20
7.8640002012252808
10
42.940011024475098
20
9.0039998292922974
10
42.184004783630371
20
9.2059993743896484
10
41.504006385803223
20
9.5979994535446167
10
40.950007438659668
20
10.152000188827515
10
40.560007095336914
20
10.830000638961792
10
40.358009338378906
20
11.588000059127808
10
40.358009338378906
20
12.369999885559082
10
40.560007095336914
20
13.126000165939331
10
40.950007438659668
20
13.804000616073608
10
41.504006385803223
20
14.357999563217163
10
42.184004783630371
20
14.750000238418579
10
42.940011024475098
20
14.952000379562378
10
43.724007606506348
20
14.952000379562378
10
44.480013847351074
20
14.750000238418579
10
45.158004760742188
20
14.357999563217163
10
45.712008476257324
20
13.804000616073608
10
46.102004051208496
20
13.126000165939331
10
46.306009292602539
20
12.369999885559082
10
46.306009292602539
20
11.588000059127808
10
45.766005516052246
20
7.4739998579025269
10
54.688010215759277
20
6.3020002841949463
10
54.838004112243652
20
7.4360001087188721
10
54.08200740814209
20
7.6399999856948853
10
53.402018547058105
20
8.0319994688034058
10
52.85001277923584
20
8.585999608039856
10
52.458014488220215
20
9.2640000581741333
10
52.256007194519043
20
10.02000093460083
10
52.256007194519043
20
10.802000761032104
10
52.458014488220215
20
11.56000018119812
10
52.85001277923584
20
12.238000631332397
10
53.402018547058105
20
12.791999578475952
10
54.08200740814209
20
13.184000253677368
10
54.838004112243652
20
13.386000394821167
10
55.620002746582031
20
13.386000394821167
10
56.378016471862793
20
13.184000253677368
10
57.056007385253906
20
12.791999578475952
10
57.610011100769043
20
12.238000631332397
10
58.002009391784668
20
11.56000018119812
10
58.204002380371094
20
10.802000761032104
10
58.204002380371094
20
10.02000093460083
10
57.662010192871094
20
5.9119999408721924
10
66.586008071899414
20
4.7399997711181641
10
66.734018325805664
20
5.8719998598098755
10
65.978007316589355
20
6.0739994049072266
10
65.302009582519531
20
6.4659994840621948
10
64.746012687683105
20
7.0179998874664307
10
64.356012344360352
20
7.6979994773864746
10
64.152016639709473
20
8.4539997577667236
10
64.152016639709473
20
9.2360001802444458
10
64.356012344360352
20
9.9939996004104614
10
64.746012687683105
20
10.672000646591187
10
65.302009582519531
20
11.225999593734741
10
65.978007316589355
20
11.618000268936157
10
66.734018325805664
20
11.820000410079956
10
67.520012855529785
20
11.820000410079956
10
68.276009559631348
20
11.618000268936157
10
68.95200252532959
20
11.225999593734741
10
69.506006240844727
20
10.672000646591187
10
69.898004531860352
20
9.9939996004104614
10
70.102014541625977
20
9.2360001802444458
10
70.102014541625977
20
8.4539997577667236
10
69.562005996704102
20
4.3499994277954102
10
78.486018180847168
20
3.1779995560646057
10
78.63400936126709
20
4.3059998750686646
10
77.876014709472656
20
4.5079994201660156
10
77.198004722595215
20
4.8979997634887695
10
76.64400577545166
20
5.4519999027252197
10
76.252007484436035
20
6.1299991607666016
10
76.050009727478027
20
6.8879997730255127
10
76.050009727478027
20
7.6699995994567871
10
76.252007484436035
20
8.4259998798370361
10
76.64400577545166
20
9.1060000658035278
10
77.198004722595215
20
9.6579992771148682
10
77.876014709472656
20
10.052000284194946
10
78.63400936126709
20
10.252000093460083
10
79.416007995605469
20
10.252000093460083
10
80.172004699707031
20
10.052000284194946
10
80.852012634277344
20
9.6579992771148682
10
81.404018402099609
20
9.1060000658035278
10
81.796016693115234
20
8.4259998798370361
10
81.998014450073242
20
7.6699995994567871
10
81.998014450073242
20
6.8879997730255127
10
79.254007339477539
20
-13.960001468658447
10
79.052009582519531
20
-14.718002080917358
10
78.660011291503906
20
-15.396002531051636
10
78.106012344360352
20
-15.95000147819519
10
77.428016662597656
20
-16.342000961303711
10
76.670007705688477
20
-16.542001962661743
10
75.888009071350098
20
-16.542001962661743
10
75.132012367248535
20
-16.342000961303711
10
74.452004432678223
20
-15.95000147819519
10
73.900017738342285
20
-15.396002531051636
10
73.508005142211914
20
-14.718002080917358
10
73.306007385253906
20
-13.960001468658447
10
73.306007385253906
20
-13.176001310348511
10
73.508005142211914
20
-12.422001361846924
10
73.900017738342285
20
-11.742000579833984
10
74.452004432678223
20
-11.190000772476196
10
75.132012367248535
20
-10.796002149581909
10
75.888009071350098
20
-10.596001148223877
10
76.670007705688477
20
-10.596001148223877
10
76.866006851196289
20
-9.1260015964508057
10
67.942008972167969
20
-7.9560011625289917
10
67.356009483337402
20
-12.394001483917236
10
67.154016494750977
20
-13.150001764297485
10
66.762018203735352
20
-13.830002546310425
10
66.208014488220215
20
-14.382002353668213
10
65.530009269714355
20
-14.774001836776733
10
64.774012565612793
20
-14.976001977920532
10
63.992013931274414
20
-14.976001977920532
10
63.23401927947998
20
-14.774001836776733
10
62.556009292602539
20
-14.382002353668213
10
62.002005577087402
20
-13.830002546310425
10
61.610007286071777
20
-13.150001764297485
10
61.408014297485352
20
-12.394001483917236
10
61.408014297485352
20
-11.612001657485962
10
61.610007286071777
20
-10.854002237319946
10
62.002005577087402
20
-10.176000595092773
10
62.556009292602539
20
-9.6220016479492188
10
63.23401927947998
20
-9.2300015687942505
10
63.992013931274414
20
-9.0280020236968994
10
64.774012565612793
20
-9.0280020236968994
10
64.968008995056152
20
-7.5640010833740234
10
56.042017936706543
20
-6.3940012454986572
10
55.460014343261719
20
-10.828001499176025
10
55.256004333496094
20
-11.584001779556274
10
54.86600399017334
20
-12.262001037597656
10
54.310007095336914
20
-12.816002368927002
10
53.63400936126709
20
-13.208001852035522
10
52.876014709472656
20
-13.412001132965088
10
52.09200382232666
20
-13.412001132965088
10
51.336007118225098
20
-13.208001852035522
10
50.658011436462402
20
-12.816002368927002
10
50.104012489318848
20
-12.262001037597656
10
49.714012145996094
20
-11.584001779556274
10
49.510002136230469
20
-10.828001499176025
10
49.510002136230469
20
-10.046001672744751
10
49.714012145996094
20
-9.2880022525787354
10
50.104012489318848
20
-8.6100006103515625
10
50.658011436462402
20
-8.0560016632080078
10
51.336007118225098
20
-7.6640015840530396
10
52.09200382232666
20
-7.4620020389556885
10
52.876014709472656
20
-7.4620020389556885
10
53.068017959594727
20
-6.002001166343689
10
44.14400577545166
20
-4.8300018906593323
10
43.560004234313965
20
-9.2620009183883667
10
43.36000919342041
20
-10.018001794815063
10
42.968010902404785
20
-10.696001052856445
10
42.41401195526123
20
-11.250002384185791
10
41.736006736755371
20
-11.642001867294312
10
40.978007316589355
20
-11.84400200843811
10
40.194010734558105
20
-11.84400200843811
10
39.440009593963623
20
-11.642001867294312
10
38.760011196136475
20
-11.250002384185791
10
38.2080078125
20
-10.696001052856445
10
37.816009521484375
20
-10.018001794815063
10
37.612006664276123
20
-9.2620009183883667
10
37.612006664276123
20
-8.4780007600784302
10
37.816009521484375
20
-7.7220022678375244
10
38.2080078125
20
-7.0440006256103516
10
38.760011196136475
20
-6.4900016784667969
10
39.440009593963623
20
-6.0980015993118286
10
40.194010734558105
20
-5.8960020542144775
10
40.978007316589355
20
-5.8960020542144775
0
LWPOLYLINE
5
101
100
AcDbEntity
8
0
100
AcDbPolyline
90
63
70
1
43
0.0
10
19.072006940841675
20
1.0919990390539169
10
19.076004028320313
20
1.2199993431568146
10
19.064010381698608
20
1.34599968791008
10
19.036003351211548
20
1.4719991385936737
10
19.002007246017456
20
1.563999205827713
10
16.188004016876221
20
9.4459992647171021
10
16.18000864982605
20
9.4799995422363281
10
16.134010553359985
20
9.6000003814697266
10
16.074005365371704
20
9.7139996290206909
10
16.002006530761719
20
9.8199999332427979
10
15.91600775718689
20
9.9139994382858276
10
15.818008184432983
20
9.9960005283355713
10
15.712006092071533
20
10.06600022315979
10
15.594009160995483
20
10.124000310897827
10
15.474007129669189
20
10.161999464035034
10
15.348007678985596
20
10.188000202178955
10
15.220009088516235
20
10.195999145507813
10
15.172004699707031
20
10.191999673843384
10
-13.771995306015015
20
10.191999673843384
10
-13.87799859046936
20
10.199999809265137
10
-14.003998041152954
20
10.191999673843384
10
-14.129997491836548
20
10.166000127792358
10
-14.253997802734375
20
10.125999450683594
10
-14.369995594024658
20
10.069999694824219
10
-14.475997686386108
20
10
10
-14.573997259140015
20
9.9179995059967041
10
-14.659996032714844
20
9.8219996690750122
10
-14.733994007110596
20
9.715999960899353
10
-14.791992902755737
20
9.604000449180603
10
-14.837998151779175
20
9.482000470161438
10
-14.839996099472046
20
9.4720000028610229
10
-17.647994756698608
20
1.603999137878418
10
-17.655994892120361
20
1.5879993140697479
10
-17.701996564865112
20
1.4659996330738068
10
-17.7299964427948
20
1.3399992883205414
10
-17.741997241973877
20
1.2119989842176437
10
-17.737995386123657
20
1.0839996486902237
10
-17.717994451522827
20
0.95799922943115234
10
-17.681995630264282
20
0.83599947392940521
10
-17.627995014190674
20
0.71799948811531067
10
-17.561997175216675
20
0.60799885541200638
10
-17.48199462890625
20
0.50799943506717682
10
-17.391995191574097
20
0.41799928992986679
10
-17.287994623184204
20
0.34199904650449753
10
-17.175995111465454
20
0.27999972924590111
10
-17.057994604110718
20
0.23199940100312233
10
-16.933997869491577
20
0.19999885931611061
10
-16.805992126464844
20
0.18199920654296875
10
-16.677993535995483
20
0.18199920654296875
10
-16.581993103027344
20
0.19399929791688919
10
17.956008911132813
20
0.19399929791688919
10
18.012008666992188
20
0.18799973651766777
10
18.140007257461548
20
0.18799973651766777
10
18.268005847930908
20
0.20399952307343483
10
18.392006158828735
20
0.23599911481142044
10
18.510010242462158
20
0.28399944305419922
10
18.622009754180908
20
0.34799959510564804
10
18.724006414413452
20
0.42599964886903763
10
18.818008899688721
20
0.51399897783994675
10
18.89801025390625
20
0.61399936676025391
10
18.964004516601563
20
0.72399906814098358
10
19.014008045196533
20
0.8399992436170578
10
19.052009582519531
20
0.96399977803230286
0
ENDSEC
0
SECTION
2
OBJECTS
0
DICTIONARY
5
C
100
AcDbDictionary
3
ACAD_GROUP
350
D
3
ACAD_MLINESTYLE
350
17
0
DICTIONARY
5
D
100
AcDbDictionary
0
DICTIONARY
5
1A
330
C
100
AcDbDictionary
0
DICTIONARY
5
17
100
AcDbDictionary
0
ENDSEC
0
EOF
